<?xml version="1.0" encoding="UTF-8"?>
<svg xmlns="http://www.w3.org/2000/svg" width="48" height="48" viewBox="0 0 48 48" shape-rendering="crispEdges" role="img">
  <title>Ivy Gourd</title>
  <rect x="21" y="12" width="1" height="1" fill="#79823f"/>
  <rect x="22" y="12" width="1" height="1" fill="#86a63b"/>
  <rect x="23" y="12" width="1" height="1" fill="#72a727"/>
  <rect x="24" y="12" width="1" height="1" fill="#689926"/>
  <rect x="7" y="13" width="1" height="1" fill="#997a4e"/>
  <rect x="8" y="13" width="1" height="1" fill="#caa36c"/>
  <rect x="9" y="13" width="1" height="1" fill="#b79a66"/>
  <rect x="10" y="13" width="1" height="1" fill="#989862"/>
  <rect x="11" y="13" width="1" height="1" fill="#997a4e"/>
  <rect x="12" y="13" width="1" height="1" fill="#b79a66"/>
  <rect x="13" y="13" width="1" height="1" fill="#c4a26d"/>
  <rect x="14" y="13" width="1" height="1" fill="#b28e5d"/>
  <rect x="15" y="13" width="1" height="1" fill="#a5895a"/>
  <rect x="16" y="13" width="1" height="1" fill="#b79a66"/>
  <rect x="17" y="13" width="1" height="1" fill="#c4a26d"/>
  <rect x="18" y="13" width="1" height="1" fill="#b79a66"/>
  <rect x="19" y="13" width="1" height="1" fill="#ac804c"/>
  <rect x="20" y="13" width="1" height="1" fill="#79823f"/>
  <rect x="21" y="13" width="1" height="1" fill="#91c238"/>
  <rect x="22" y="13" width="1" height="1" fill="#81b32f"/>
  <rect x="23" y="13" width="1" height="1" fill="#72a727"/>
  <rect x="24" y="13" width="1" height="1" fill="#689926"/>
  <rect x="25" y="13" width="1" height="1" fill="#4a7918"/>
  <rect x="26" y="13" width="1" height="1" fill="#466c17"/>
  <rect x="27" y="13" width="1" height="1" fill="#79823f"/>
  <rect x="28" y="13" width="1" height="1" fill="#689926"/>
  <rect x="29" y="13" width="2" height="1" fill="#79823f"/>
  <rect x="31" y="13" width="1" height="1" fill="#b28e5d"/>
  <rect x="32" y="13" width="1" height="1" fill="#b79a66"/>
  <rect x="33" y="13" width="1" height="1" fill="#b28e5d"/>
  <rect x="34" y="13" width="2" height="1" fill="#c4a26d"/>
  <rect x="36" y="13" width="1" height="1" fill="#b79a66"/>
  <rect x="37" y="13" width="1" height="1" fill="#a39f69"/>
  <rect x="38" y="13" width="1" height="1" fill="#989862"/>
  <rect x="39" y="13" width="1" height="1" fill="#c4a26d"/>
  <rect x="40" y="13" width="1" height="1" fill="#b28e5d"/>
  <rect x="7" y="14" width="1" height="1" fill="#b28e5d"/>
  <rect x="8" y="14" width="1" height="1" fill="#e6c181"/>
  <rect x="9" y="14" width="1" height="1" fill="#b5a96a"/>
  <rect x="10" y="14" width="1" height="1" fill="#b1a26c"/>
  <rect x="11" y="14" width="1" height="1" fill="#dcb47a"/>
  <rect x="12" y="14" width="1" height="1" fill="#e4bc80"/>
  <rect x="13" y="14" width="1" height="1" fill="#dcb47a"/>
  <rect x="14" y="14" width="1" height="1" fill="#e0b87d"/>
  <rect x="15" y="14" width="1" height="1" fill="#e4bc80"/>
  <rect x="16" y="14" width="1" height="1" fill="#d6ab70"/>
  <rect x="17" y="14" width="2" height="1" fill="#b5a96a"/>
  <rect x="19" y="14" width="1" height="1" fill="#79823f"/>
  <rect x="20" y="14" width="1" height="1" fill="#53861b"/>
  <rect x="21" y="14" width="1" height="1" fill="#81b32f"/>
  <rect x="22" y="14" width="1" height="1" fill="#466c17"/>
  <rect x="23" y="14" width="1" height="1" fill="#2d5a10"/>
  <rect x="24" y="14" width="1" height="1" fill="#53861b"/>
  <rect x="25" y="14" width="1" height="1" fill="#86a63b"/>
  <rect x="26" y="14" width="1" height="1" fill="#689926"/>
  <rect x="27" y="14" width="1" height="1" fill="#53861b"/>
  <rect x="28" y="14" width="1" height="1" fill="#72a727"/>
  <rect x="29" y="14" width="1" height="1" fill="#81b32f"/>
  <rect x="30" y="14" width="1" height="1" fill="#72a727"/>
  <rect x="31" y="14" width="1" height="1" fill="#989862"/>
  <rect x="32" y="14" width="1" height="1" fill="#e6c181"/>
  <rect x="33" y="14" width="1" height="1" fill="#e4bc80"/>
  <rect x="34" y="14" width="1" height="1" fill="#e0b87d"/>
  <rect x="35" y="14" width="1" height="1" fill="#dcb47a"/>
  <rect x="36" y="14" width="1" height="1" fill="#e4bc80"/>
  <rect x="37" y="14" width="1" height="1" fill="#d6ab70"/>
  <rect x="38" y="14" width="1" height="1" fill="#a39f69"/>
  <rect x="39" y="14" width="1" height="1" fill="#dcb47a"/>
  <rect x="40" y="14" width="1" height="1" fill="#c4a26d"/>
  <rect x="7" y="15" width="1" height="1" fill="#caa36c"/>
  <rect x="8" y="15" width="1" height="1" fill="#e0b87d"/>
  <rect x="9" y="15" width="1" height="1" fill="#b1a26c"/>
  <rect x="10" y="15" width="1" height="1" fill="#989862"/>
  <rect x="11" y="15" width="1" height="1" fill="#d6ab70"/>
  <rect x="12" y="15" width="2" height="1" fill="#dcb47a"/>
  <rect x="14" y="15" width="1" height="1" fill="#e4bc80"/>
  <rect x="15" y="15" width="1" height="1" fill="#b79a66"/>
  <rect x="16" y="15" width="1" height="1" fill="#86a63b"/>
  <rect x="17" y="15" width="1" height="1" fill="#91c238"/>
  <rect x="18" y="15" width="1" height="1" fill="#53861b"/>
  <rect x="19" y="15" width="1" height="1" fill="#72a727"/>
  <rect x="20" y="15" width="1" height="1" fill="#9dca43"/>
  <rect x="21" y="15" width="1" height="1" fill="#81b32f"/>
  <rect x="22" y="15" width="1" height="1" fill="#4a7918"/>
  <rect x="23" y="15" width="1" height="1" fill="#0d2407"/>
  <rect x="24" y="15" width="1" height="1" fill="#72a727"/>
  <rect x="25" y="15" width="2" height="1" fill="#9dca43"/>
  <rect x="27" y="15" width="1" height="1" fill="#81b32f"/>
  <rect x="28" y="15" width="1" height="1" fill="#466c17"/>
  <rect x="29" y="15" width="1" height="1" fill="#386813"/>
  <rect x="30" y="15" width="1" height="1" fill="#466c17"/>
  <rect x="31" y="15" width="1" height="1" fill="#394f18"/>
  <rect x="32" y="15" width="1" height="1" fill="#c4a26d"/>
  <rect x="33" y="15" width="1" height="1" fill="#e4bc80"/>
  <rect x="34" y="15" width="1" height="1" fill="#e0b87d"/>
  <rect x="35" y="15" width="2" height="1" fill="#dcb47a"/>
  <rect x="37" y="15" width="1" height="1" fill="#d6ab70"/>
  <rect x="38" y="15" width="1" height="1" fill="#a39f69"/>
  <rect x="39" y="15" width="1" height="1" fill="#b5a96a"/>
  <rect x="40" y="15" width="1" height="1" fill="#dcb47a"/>
  <rect x="6" y="16" width="1" height="1" fill="#997a4e"/>
  <rect x="7" y="16" width="2" height="1" fill="#dcb47a"/>
  <rect x="9" y="16" width="2" height="1" fill="#a39f69"/>
  <rect x="11" y="16" width="2" height="1" fill="#dcb47a"/>
  <rect x="13" y="16" width="1" height="1" fill="#c4a26d"/>
  <rect x="14" y="16" width="1" height="1" fill="#b28e5d"/>
  <rect x="15" y="16" width="1" height="1" fill="#53861b"/>
  <rect x="16" y="16" width="1" height="1" fill="#72a727"/>
  <rect x="17" y="16" width="1" height="1" fill="#4a7918"/>
  <rect x="18" y="16" width="1" height="1" fill="#72a727"/>
  <rect x="19" y="16" width="1" height="1" fill="#bfe068"/>
  <rect x="20" y="16" width="1" height="1" fill="#81b32f"/>
  <rect x="21" y="16" width="1" height="1" fill="#4a7918"/>
  <rect x="22" y="16" width="1" height="1" fill="#466c17"/>
  <rect x="23" y="16" width="1" height="1" fill="#4a7918"/>
  <rect x="24" y="16" width="1" height="1" fill="#386813"/>
  <rect x="25" y="16" width="1" height="1" fill="#689926"/>
  <rect x="26" y="16" width="3" height="1" fill="#81b32f"/>
  <rect x="29" y="16" width="1" height="1" fill="#294e0f"/>
  <rect x="30" y="16" width="1" height="1" fill="#466c17"/>
  <rect x="31" y="16" width="3" height="1" fill="#86a63b"/>
  <rect x="34" y="16" width="1" height="1" fill="#c4a26d"/>
  <rect x="35" y="16" width="1" height="1" fill="#e4bc80"/>
  <rect x="36" y="16" width="2" height="1" fill="#dcb47a"/>
  <rect x="38" y="16" width="2" height="1" fill="#a39f69"/>
  <rect x="40" y="16" width="1" height="1" fill="#e4bc80"/>
  <rect x="41" y="16" width="1" height="1" fill="#a5895a"/>
  <rect x="6" y="17" width="1" height="1" fill="#997a4e"/>
  <rect x="7" y="17" width="1" height="1" fill="#e0b87d"/>
  <rect x="8" y="17" width="1" height="1" fill="#c2b36a"/>
  <rect x="9" y="17" width="1" height="1" fill="#989862"/>
  <rect x="10" y="17" width="1" height="1" fill="#b5a96a"/>
  <rect x="11" y="17" width="1" height="1" fill="#e4bc80"/>
  <rect x="12" y="17" width="1" height="1" fill="#b28e5d"/>
  <rect x="13" y="17" width="2" height="1" fill="#91c238"/>
  <rect x="15" y="17" width="1" height="1" fill="#689926"/>
  <rect x="16" y="17" width="1" height="1" fill="#2d5a10"/>
  <rect x="17" y="17" width="1" height="1" fill="#386813"/>
  <rect x="18" y="17" width="1" height="1" fill="#91c238"/>
  <rect x="19" y="17" width="1" height="1" fill="#72a727"/>
  <rect x="20" y="17" width="1" height="1" fill="#53861b"/>
  <rect x="21" y="17" width="1" height="1" fill="#294e0f"/>
  <rect x="22" y="17" width="1" height="1" fill="#72a727"/>
  <rect x="23" y="17" width="1" height="1" fill="#bfe068"/>
  <rect x="24" y="17" width="1" height="1" fill="#72a727"/>
  <rect x="25" y="17" width="1" height="1" fill="#2d5a10"/>
  <rect x="26" y="17" width="1" height="1" fill="#53861b"/>
  <rect x="27" y="17" width="1" height="1" fill="#689926"/>
  <rect x="28" y="17" width="1" height="1" fill="#72a727"/>
  <rect x="29" y="17" width="1" height="1" fill="#466c17"/>
  <rect x="30" y="17" width="1" height="1" fill="#689926"/>
  <rect x="31" y="17" width="1" height="1" fill="#9dca43"/>
  <rect x="32" y="17" width="2" height="1" fill="#81b32f"/>
  <rect x="34" y="17" width="1" height="1" fill="#53861b"/>
  <rect x="35" y="17" width="1" height="1" fill="#a5895a"/>
  <rect x="36" y="17" width="2" height="1" fill="#dcb47a"/>
  <rect x="38" y="17" width="1" height="1" fill="#b5a96a"/>
  <rect x="39" y="17" width="1" height="1" fill="#989862"/>
  <rect x="40" y="17" width="1" height="1" fill="#dcb47a"/>
  <rect x="41" y="17" width="1" height="1" fill="#b28e5d"/>
  <rect x="6" y="18" width="1" height="1" fill="#b79a66"/>
  <rect x="7" y="18" width="1" height="1" fill="#e6c181"/>
  <rect x="8" y="18" width="1" height="1" fill="#b1a26c"/>
  <rect x="9" y="18" width="1" height="1" fill="#989862"/>
  <rect x="10" y="18" width="1" height="1" fill="#d6ab70"/>
  <rect x="11" y="18" width="1" height="1" fill="#e0b87d"/>
  <rect x="12" y="18" width="1" height="1" fill="#79823f"/>
  <rect x="13" y="18" width="1" height="1" fill="#72a727"/>
  <rect x="14" y="18" width="1" height="1" fill="#689926"/>
  <rect x="15" y="18" width="1" height="1" fill="#53861b"/>
  <rect x="16" y="18" width="1" height="1" fill="#689926"/>
  <rect x="17" y="18" width="1" height="1" fill="#53861b"/>
  <rect x="18" y="18" width="1" height="1" fill="#72a727"/>
  <rect x="19" y="18" width="1" height="1" fill="#466c17"/>
  <rect x="20" y="18" width="1" height="1" fill="#294e0f"/>
  <rect x="21" y="18" width="1" height="1" fill="#0d2407"/>
  <rect x="22" y="18" width="1" height="1" fill="#4a7918"/>
  <rect x="23" y="18" width="1" height="1" fill="#81b32f"/>
  <rect x="24" y="18" width="1" height="1" fill="#9dca43"/>
  <rect x="25" y="18" width="1" height="1" fill="#466c17"/>
  <rect x="26" y="18" width="1" height="1" fill="#233c0e"/>
  <rect x="27" y="18" width="1" height="1" fill="#386813"/>
  <rect x="28" y="18" width="1" height="1" fill="#4a7918"/>
  <rect x="29" y="18" width="1" height="1" fill="#294e0f"/>
  <rect x="30" y="18" width="1" height="1" fill="#233c0e"/>
  <rect x="31" y="18" width="1" height="1" fill="#386813"/>
  <rect x="32" y="18" width="1" height="1" fill="#53861b"/>
  <rect x="33" y="18" width="1" height="1" fill="#4a7918"/>
  <rect x="34" y="18" width="1" height="1" fill="#53861b"/>
  <rect x="35" y="18" width="1" height="1" fill="#466c17"/>
  <rect x="36" y="18" width="1" height="1" fill="#a5895a"/>
  <rect x="37" y="18" width="1" height="1" fill="#e6c181"/>
  <rect x="38" y="18" width="1" height="1" fill="#c4a26d"/>
  <rect x="39" y="18" width="1" height="1" fill="#a39f69"/>
  <rect x="40" y="18" width="1" height="1" fill="#c2b36a"/>
  <rect x="41" y="18" width="1" height="1" fill="#caa36c"/>
  <rect x="6" y="19" width="1" height="1" fill="#d6ab70"/>
  <rect x="7" y="19" width="1" height="1" fill="#e0b87d"/>
  <rect x="8" y="19" width="2" height="1" fill="#a39f69"/>
  <rect x="10" y="19" width="1" height="1" fill="#e4bc80"/>
  <rect x="11" y="19" width="1" height="1" fill="#d6ab70"/>
  <rect x="12" y="19" width="1" height="1" fill="#466c17"/>
  <rect x="13" y="19" width="2" height="1" fill="#2d5a10"/>
  <rect x="15" y="19" width="1" height="1" fill="#9dca43"/>
  <rect x="16" y="19" width="1" height="1" fill="#91c238"/>
  <rect x="17" y="19" width="1" height="1" fill="#233c0e"/>
  <rect x="18" y="19" width="1" height="1" fill="#386813"/>
  <rect x="19" y="19" width="1" height="1" fill="#53861b"/>
  <rect x="20" y="19" width="2" height="1" fill="#689926"/>
  <rect x="22" y="19" width="2" height="1" fill="#4a7918"/>
  <rect x="24" y="19" width="1" height="1" fill="#72a727"/>
  <rect x="25" y="19" width="1" height="1" fill="#4a7918"/>
  <rect x="26" y="19" width="1" height="1" fill="#294e0f"/>
  <rect x="27" y="19" width="1" height="1" fill="#72a727"/>
  <rect x="28" y="19" width="2" height="1" fill="#91c238"/>
  <rect x="30" y="19" width="1" height="1" fill="#689926"/>
  <rect x="31" y="19" width="1" height="1" fill="#2d5a10"/>
  <rect x="32" y="19" width="1" height="1" fill="#233c0e"/>
  <rect x="33" y="19" width="1" height="1" fill="#386813"/>
  <rect x="34" y="19" width="2" height="1" fill="#91c238"/>
  <rect x="36" y="19" width="1" height="1" fill="#79823f"/>
  <rect x="37" y="19" width="1" height="1" fill="#d6ab70"/>
  <rect x="38" y="19" width="1" height="1" fill="#dcb47a"/>
  <rect x="39" y="19" width="1" height="1" fill="#a39f69"/>
  <rect x="40" y="19" width="1" height="1" fill="#b1a26c"/>
  <rect x="41" y="19" width="1" height="1" fill="#e0b87d"/>
  <rect x="42" y="19" width="1" height="1" fill="#997a4e"/>
  <rect x="5" y="20" width="1" height="1" fill="#a5895a"/>
  <rect x="6" y="20" width="1" height="1" fill="#e6c181"/>
  <rect x="7" y="20" width="1" height="1" fill="#d6ab70"/>
  <rect x="8" y="20" width="1" height="1" fill="#989862"/>
  <rect x="9" y="20" width="1" height="1" fill="#b1a26c"/>
  <rect x="10" y="20" width="1" height="1" fill="#b79a66"/>
  <rect x="11" y="20" width="1" height="1" fill="#86a63b"/>
  <rect x="12" y="20" width="1" height="1" fill="#81b32f"/>
  <rect x="13" y="20" width="1" height="1" fill="#53861b"/>
  <rect x="14" y="20" width="1" height="1" fill="#466c17"/>
  <rect x="15" y="20" width="1" height="1" fill="#81b32f"/>
  <rect x="16" y="20" width="1" height="1" fill="#4a7918"/>
  <rect x="17" y="20" width="1" height="1" fill="#53861b"/>
  <rect x="18" y="20" width="1" height="1" fill="#81b32f"/>
  <rect x="19" y="20" width="1" height="1" fill="#9dca43"/>
  <rect x="20" y="20" width="1" height="1" fill="#bfe068"/>
  <rect x="21" y="20" width="1" height="1" fill="#9dca43"/>
  <rect x="22" y="20" width="1" height="1" fill="#72a727"/>
  <rect x="23" y="20" width="1" height="1" fill="#233c0e"/>
  <rect x="24" y="20" width="3" height="1" fill="#386813"/>
  <rect x="27" y="20" width="1" height="1" fill="#4a7918"/>
  <rect x="28" y="20" width="1" height="1" fill="#72a727"/>
  <rect x="29" y="20" width="1" height="1" fill="#91c238"/>
  <rect x="30" y="20" width="1" height="1" fill="#9dca43"/>
  <rect x="31" y="20" width="1" height="1" fill="#91c238"/>
  <rect x="32" y="20" width="1" height="1" fill="#294e0f"/>
  <rect x="33" y="20" width="1" height="1" fill="#81b32f"/>
  <rect x="34" y="20" width="1" height="1" fill="#bfe068"/>
  <rect x="35" y="20" width="1" height="1" fill="#72a727"/>
  <rect x="36" y="20" width="1" height="1" fill="#386813"/>
  <rect x="37" y="20" width="1" height="1" fill="#72a727"/>
  <rect x="38" y="20" width="1" height="1" fill="#b79a66"/>
  <rect x="39" y="20" width="1" height="1" fill="#b1a26c"/>
  <rect x="40" y="20" width="1" height="1" fill="#a39f69"/>
  <rect x="41" y="20" width="1" height="1" fill="#e4bc80"/>
  <rect x="42" y="20" width="1" height="1" fill="#a5895a"/>
  <rect x="5" y="21" width="1" height="1" fill="#b28e5d"/>
  <rect x="6" y="21" width="1" height="1" fill="#e6c181"/>
  <rect x="7" y="21" width="1" height="1" fill="#b5a96a"/>
  <rect x="8" y="21" width="1" height="1" fill="#a39f69"/>
  <rect x="9" y="21" width="1" height="1" fill="#989862"/>
  <rect x="10" y="21" width="1" height="1" fill="#86a63b"/>
  <rect x="11" y="21" width="1" height="1" fill="#9dca43"/>
  <rect x="12" y="21" width="1" height="1" fill="#689926"/>
  <rect x="13" y="21" width="1" height="1" fill="#386813"/>
  <rect x="14" y="21" width="2" height="1" fill="#294e0f"/>
  <rect x="16" y="21" width="1" height="1" fill="#386813"/>
  <rect x="17" y="21" width="1" height="1" fill="#91c238"/>
  <rect x="18" y="21" width="1" height="1" fill="#81b32f"/>
  <rect x="19" y="21" width="1" height="1" fill="#72a727"/>
  <rect x="20" y="21" width="1" height="1" fill="#689926"/>
  <rect x="21" y="21" width="1" height="1" fill="#53861b"/>
  <rect x="22" y="21" width="1" height="1" fill="#2d5a10"/>
  <rect x="23" y="21" width="1" height="1" fill="#53861b"/>
  <rect x="24" y="21" width="1" height="1" fill="#91c238"/>
  <rect x="25" y="21" width="2" height="1" fill="#9dca43"/>
  <rect x="27" y="21" width="1" height="1" fill="#81b32f"/>
  <rect x="28" y="21" width="2" height="1" fill="#386813"/>
  <rect x="30" y="21" width="2" height="1" fill="#4a7918"/>
  <rect x="32" y="21" width="1" height="1" fill="#394f18"/>
  <rect x="33" y="21" width="2" height="1" fill="#81b32f"/>
  <rect x="35" y="21" width="1" height="1" fill="#4a7918"/>
  <rect x="36" y="21" width="1" height="1" fill="#294e0f"/>
  <rect x="37" y="21" width="1" height="1" fill="#72a727"/>
  <rect x="38" y="21" width="1" height="1" fill="#689926"/>
  <rect x="39" y="21" width="1" height="1" fill="#989862"/>
  <rect x="40" y="21" width="1" height="1" fill="#a39f69"/>
  <rect x="41" y="21" width="1" height="1" fill="#d6ab70"/>
  <rect x="42" y="21" width="1" height="1" fill="#c4a26d"/>
  <rect x="5" y="22" width="1" height="1" fill="#caa36c"/>
  <rect x="6" y="22" width="1" height="1" fill="#e0b87d"/>
  <rect x="7" y="22" width="2" height="1" fill="#a39f69"/>
  <rect x="9" y="22" width="1" height="1" fill="#79823f"/>
  <rect x="10" y="22" width="1" height="1" fill="#91c238"/>
  <rect x="11" y="22" width="1" height="1" fill="#53861b"/>
  <rect x="12" y="22" width="1" height="1" fill="#466c17"/>
  <rect x="13" y="22" width="1" height="1" fill="#689926"/>
  <rect x="14" y="22" width="1" height="1" fill="#91c238"/>
  <rect x="15" y="22" width="1" height="1" fill="#689926"/>
  <rect x="16" y="22" width="1" height="1" fill="#0d2407"/>
  <rect x="17" y="22" width="2" height="1" fill="#386813"/>
  <rect x="19" y="22" width="2" height="1" fill="#2d5a10"/>
  <rect x="21" y="22" width="1" height="1" fill="#233c0e"/>
  <rect x="22" y="22" width="1" height="1" fill="#294e0f"/>
  <rect x="23" y="22" width="2" height="1" fill="#91c238"/>
  <rect x="25" y="22" width="2" height="1" fill="#81b32f"/>
  <rect x="27" y="22" width="1" height="1" fill="#72a727"/>
  <rect x="28" y="22" width="2" height="1" fill="#394f18"/>
  <rect x="30" y="22" width="1" height="1" fill="#689926"/>
  <rect x="31" y="22" width="1" height="1" fill="#2d5a10"/>
  <rect x="32" y="22" width="1" height="1" fill="#233c0e"/>
  <rect x="33" y="22" width="1" height="1" fill="#81b32f"/>
  <rect x="34" y="22" width="1" height="1" fill="#53861b"/>
  <rect x="35" y="22" width="1" height="1" fill="#294e0f"/>
  <rect x="36" y="22" width="2" height="1" fill="#4a7918"/>
  <rect x="38" y="22" width="1" height="1" fill="#394f18"/>
  <rect x="39" y="22" width="1" height="1" fill="#b28e5d"/>
  <rect x="40" y="22" width="1" height="1" fill="#a39f69"/>
  <rect x="41" y="22" width="1" height="1" fill="#b1a26c"/>
  <rect x="42" y="22" width="1" height="1" fill="#e0b87d"/>
  <rect x="4" y="23" width="1" height="1" fill="#a5895a"/>
  <rect x="5" y="23" width="1" height="1" fill="#e6c181"/>
  <rect x="6" y="23" width="1" height="1" fill="#d6ab70"/>
  <rect x="7" y="23" width="1" height="1" fill="#989862"/>
  <rect x="8" y="23" width="1" height="1" fill="#b5a96a"/>
  <rect x="9" y="23" width="1" height="1" fill="#846b43"/>
  <rect x="10" y="23" width="2" height="1" fill="#386813"/>
  <rect x="12" y="23" width="1" height="1" fill="#72a727"/>
  <rect x="13" y="23" width="2" height="1" fill="#81b32f"/>
  <rect x="15" y="23" width="1" height="1" fill="#4a7918"/>
  <rect x="16" y="23" width="1" height="1" fill="#2d5a10"/>
  <rect x="17" y="23" width="1" height="1" fill="#386813"/>
  <rect x="18" y="23" width="1" height="1" fill="#233c0e"/>
  <rect x="19" y="23" width="1" height="1" fill="#4a7918"/>
  <rect x="20" y="23" width="1" height="1" fill="#91c238"/>
  <rect x="21" y="23" width="1" height="1" fill="#689926"/>
  <rect x="22" y="23" width="1" height="1" fill="#233c0e"/>
  <rect x="23" y="23" width="1" height="1" fill="#386813"/>
  <rect x="24" y="23" width="1" height="1" fill="#466c17"/>
  <rect x="25" y="23" width="1" height="1" fill="#4a7918"/>
  <rect x="26" y="23" width="1" height="1" fill="#386813"/>
  <rect x="27" y="23" width="1" height="1" fill="#294e0f"/>
  <rect x="28" y="23" width="1" height="1" fill="#0d2407"/>
  <rect x="29" y="23" width="1" height="1" fill="#689926"/>
  <rect x="30" y="23" width="2" height="1" fill="#9dca43"/>
  <rect x="32" y="23" width="1" height="1" fill="#53861b"/>
  <rect x="33" y="23" width="2" height="1" fill="#294e0f"/>
  <rect x="35" y="23" width="1" height="1" fill="#689926"/>
  <rect x="36" y="23" width="1" height="1" fill="#9dca43"/>
  <rect x="37" y="23" width="1" height="1" fill="#91c238"/>
  <rect x="38" y="23" width="1" height="1" fill="#466c17"/>
  <rect x="39" y="23" width="1" height="1" fill="#b79a66"/>
  <rect x="40" y="23" width="2" height="1" fill="#a39f69"/>
  <rect x="42" y="23" width="1" height="1" fill="#e6c181"/>
  <rect x="43" y="23" width="1" height="1" fill="#b28e5d"/>
  <rect x="4" y="24" width="1" height="1" fill="#b28e5d"/>
  <rect x="5" y="24" width="1" height="1" fill="#e0b87d"/>
  <rect x="6" y="24" width="1" height="1" fill="#b1a26c"/>
  <rect x="7" y="24" width="1" height="1" fill="#989862"/>
  <rect x="8" y="24" width="1" height="1" fill="#c2b36a"/>
  <rect x="9" y="24" width="1" height="1" fill="#b79a66"/>
  <rect x="10" y="24" width="1" height="1" fill="#6b3f25"/>
  <rect x="11" y="24" width="1" height="1" fill="#689926"/>
  <rect x="12" y="24" width="1" height="1" fill="#81b32f"/>
  <rect x="13" y="24" width="1" height="1" fill="#689926"/>
  <rect x="14" y="24" width="1" height="1" fill="#386813"/>
  <rect x="15" y="24" width="1" height="1" fill="#2d5a10"/>
  <rect x="16" y="24" width="1" height="1" fill="#9dca43"/>
  <rect x="17" y="24" width="1" height="1" fill="#81b32f"/>
  <rect x="18" y="24" width="1" height="1" fill="#4a7918"/>
  <rect x="19" y="24" width="1" height="1" fill="#9dca43"/>
  <rect x="20" y="24" width="1" height="1" fill="#91c238"/>
  <rect x="21" y="24" width="1" height="1" fill="#53861b"/>
  <rect x="22" y="24" width="1" height="1" fill="#233c0e"/>
  <rect x="23" y="24" width="1" height="1" fill="#294e0f"/>
  <rect x="24" y="24" width="1" height="1" fill="#386813"/>
  <rect x="25" y="24" width="2" height="1" fill="#233c0e"/>
  <rect x="27" y="24" width="1" height="1" fill="#53861b"/>
  <rect x="28" y="24" width="2" height="1" fill="#386813"/>
  <rect x="30" y="24" width="1" height="1" fill="#72a727"/>
  <rect x="31" y="24" width="2" height="1" fill="#91c238"/>
  <rect x="33" y="24" width="1" height="1" fill="#386813"/>
  <rect x="34" y="24" width="1" height="1" fill="#2d5a10"/>
  <rect x="35" y="24" width="1" height="1" fill="#53861b"/>
  <rect x="36" y="24" width="2" height="1" fill="#386813"/>
  <rect x="38" y="24" width="1" height="1" fill="#466c17"/>
  <rect x="39" y="24" width="1" height="1" fill="#d6ab70"/>
  <rect x="40" y="24" width="1" height="1" fill="#b1a26c"/>
  <rect x="41" y="24" width="1" height="1" fill="#989862"/>
  <rect x="42" y="24" width="1" height="1" fill="#dcb47a"/>
  <rect x="43" y="24" width="1" height="1" fill="#c4a26d"/>
  <rect x="4" y="25" width="1" height="1" fill="#caa36c"/>
  <rect x="5" y="25" width="1" height="1" fill="#e0b87d"/>
  <rect x="6" y="25" width="2" height="1" fill="#a39f69"/>
  <rect x="8" y="25" width="1" height="1" fill="#d6ab70"/>
  <rect x="9" y="25" width="1" height="1" fill="#e6c181"/>
  <rect x="10" y="25" width="1" height="1" fill="#79823f"/>
  <rect x="11" y="25" width="1" height="1" fill="#4a7918"/>
  <rect x="12" y="25" width="1" height="1" fill="#466c17"/>
  <rect x="13" y="25" width="1" height="1" fill="#2d5a10"/>
  <rect x="14" y="25" width="1" height="1" fill="#233c0e"/>
  <rect x="15" y="25" width="1" height="1" fill="#4a7918"/>
  <rect x="16" y="25" width="1" height="1" fill="#9dca43"/>
  <rect x="17" y="25" width="1" height="1" fill="#53861b"/>
  <rect x="18" y="25" width="1" height="1" fill="#72a727"/>
  <rect x="19" y="25" width="1" height="1" fill="#9dca43"/>
  <rect x="20" y="25" width="1" height="1" fill="#689926"/>
  <rect x="21" y="25" width="1" height="1" fill="#2d5a10"/>
  <rect x="22" y="25" width="1" height="1" fill="#689926"/>
  <rect x="23" y="25" width="1" height="1" fill="#9dca43"/>
  <rect x="24" y="25" width="1" height="1" fill="#91c238"/>
  <rect x="25" y="25" width="2" height="1" fill="#386813"/>
  <rect x="27" y="25" width="1" height="1" fill="#9dca43"/>
  <rect x="28" y="25" width="1" height="1" fill="#72a727"/>
  <rect x="29" y="25" width="1" height="1" fill="#294e0f"/>
  <rect x="30" y="25" width="1" height="1" fill="#53861b"/>
  <rect x="31" y="25" width="2" height="1" fill="#72a727"/>
  <rect x="33" y="25" width="1" height="1" fill="#689926"/>
  <rect x="34" y="25" width="1" height="1" fill="#386813"/>
  <rect x="35" y="25" width="1" height="1" fill="#72a727"/>
  <rect x="36" y="25" width="1" height="1" fill="#86a63b"/>
  <rect x="37" y="25" width="1" height="1" fill="#466c17"/>
  <rect x="38" y="25" width="1" height="1" fill="#846b43"/>
  <rect x="39" y="25" width="1" height="1" fill="#e4bc80"/>
  <rect x="40" y="25" width="1" height="1" fill="#b5a96a"/>
  <rect x="41" y="25" width="1" height="1" fill="#989862"/>
  <rect x="42" y="25" width="1" height="1" fill="#c4a26d"/>
  <rect x="43" y="25" width="1" height="1" fill="#dcb47a"/>
  <rect x="3" y="26" width="1" height="1" fill="#997a4e"/>
  <rect x="4" y="26" width="1" height="1" fill="#d6ab70"/>
  <rect x="5" y="26" width="1" height="1" fill="#caa36c"/>
  <rect x="6" y="26" width="1" height="1" fill="#989862"/>
  <rect x="7" y="26" width="1" height="1" fill="#b1a26c"/>
  <rect x="8" y="26" width="1" height="1" fill="#e0b87d"/>
  <rect x="9" y="26" width="1" height="1" fill="#e4bc80"/>
  <rect x="10" y="26" width="1" height="1" fill="#846b43"/>
  <rect x="11" y="26" width="1" height="1" fill="#233c0e"/>
  <rect x="12" y="26" width="1" height="1" fill="#53861b"/>
  <rect x="13" y="26" width="1" height="1" fill="#86a63b"/>
  <rect x="14" y="26" width="2" height="1" fill="#466c17"/>
  <rect x="16" y="26" width="1" height="1" fill="#72a727"/>
  <rect x="17" y="26" width="1" height="1" fill="#2d5a10"/>
  <rect x="18" y="26" width="1" height="1" fill="#4a7918"/>
  <rect x="19" y="26" width="1" height="1" fill="#689926"/>
  <rect x="20" y="26" width="1" height="1" fill="#294e0f"/>
  <rect x="21" y="26" width="1" height="1" fill="#2d5a10"/>
  <rect x="22" y="26" width="2" height="1" fill="#9dca43"/>
  <rect x="24" y="26" width="1" height="1" fill="#689926"/>
  <rect x="25" y="26" width="1" height="1" fill="#2d5a10"/>
  <rect x="26" y="26" width="1" height="1" fill="#386813"/>
  <rect x="27" y="26" width="2" height="1" fill="#91c238"/>
  <rect x="29" y="26" width="1" height="1" fill="#294e0f"/>
  <rect x="30" y="26" width="1" height="1" fill="#233c0e"/>
  <rect x="31" y="26" width="1" height="1" fill="#4a7918"/>
  <rect x="32" y="26" width="1" height="1" fill="#689926"/>
  <rect x="33" y="26" width="1" height="1" fill="#53861b"/>
  <rect x="34" y="26" width="1" height="1" fill="#386813"/>
  <rect x="35" y="26" width="1" height="1" fill="#81b32f"/>
  <rect x="36" y="26" width="2" height="1" fill="#9dca43"/>
  <rect x="38" y="26" width="1" height="1" fill="#86a63b"/>
  <rect x="39" y="26" width="1" height="1" fill="#caa36c"/>
  <rect x="40" y="26" width="1" height="1" fill="#dcb47a"/>
  <rect x="41" y="26" width="1" height="1" fill="#989862"/>
  <rect x="42" y="26" width="1" height="1" fill="#b1a26c"/>
  <rect x="43" y="26" width="1" height="1" fill="#e6c181"/>
  <rect x="44" y="26" width="1" height="1" fill="#a5895a"/>
  <rect x="3" y="27" width="1" height="1" fill="#a5895a"/>
  <rect x="4" y="27" width="1" height="1" fill="#e6c181"/>
  <rect x="5" y="27" width="1" height="1" fill="#b1a26c"/>
  <rect x="6" y="27" width="1" height="1" fill="#989862"/>
  <rect x="7" y="27" width="1" height="1" fill="#c2b36a"/>
  <rect x="8" y="27" width="1" height="1" fill="#e4bc80"/>
  <rect x="9" y="27" width="1" height="1" fill="#dcb47a"/>
  <rect x="10" y="27" width="1" height="1" fill="#e0b87d"/>
  <rect x="11" y="27" width="1" height="1" fill="#846b43"/>
  <rect x="12" y="27" width="1" height="1" fill="#72a727"/>
  <rect x="13" y="27" width="2" height="1" fill="#9dca43"/>
  <rect x="15" y="27" width="1" height="1" fill="#53861b"/>
  <rect x="16" y="27" width="3" height="1" fill="#233c0e"/>
  <rect x="19" y="27" width="1" height="1" fill="#466c17"/>
  <rect x="20" y="27" width="1" height="1" fill="#2d5a10"/>
  <rect x="21" y="27" width="1" height="1" fill="#53861b"/>
  <rect x="22" y="27" width="1" height="1" fill="#91c238"/>
  <rect x="23" y="27" width="1" height="1" fill="#689926"/>
  <rect x="24" y="27" width="1" height="1" fill="#4a7918"/>
  <rect x="25" y="27" width="1" height="1" fill="#233c0e"/>
  <rect x="26" y="27" width="1" height="1" fill="#394f18"/>
  <rect x="27" y="27" width="2" height="1" fill="#81b32f"/>
  <rect x="29" y="27" width="1" height="1" fill="#294e0f"/>
  <rect x="30" y="27" width="1" height="1" fill="#233c0e"/>
  <rect x="31" y="27" width="2" height="1" fill="#2d5a10"/>
  <rect x="33" y="27" width="1" height="1" fill="#233c0e"/>
  <rect x="34" y="27" width="1" height="1" fill="#294e0f"/>
  <rect x="35" y="27" width="1" height="1" fill="#4a7918"/>
  <rect x="36" y="27" width="1" height="1" fill="#53861b"/>
  <rect x="37" y="27" width="1" height="1" fill="#72a727"/>
  <rect x="38" y="27" width="1" height="1" fill="#466c17"/>
  <rect x="39" y="27" width="1" height="1" fill="#997a4e"/>
  <rect x="40" y="27" width="1" height="1" fill="#e6c181"/>
  <rect x="41" y="27" width="1" height="1" fill="#a39f69"/>
  <rect x="42" y="27" width="1" height="1" fill="#989862"/>
  <rect x="43" y="27" width="1" height="1" fill="#e4bc80"/>
  <rect x="44" y="27" width="1" height="1" fill="#b79a66"/>
  <rect x="3" y="28" width="1" height="1" fill="#caa36c"/>
  <rect x="4" y="28" width="1" height="1" fill="#e0b87d"/>
  <rect x="5" y="28" width="2" height="1" fill="#a39f69"/>
  <rect x="7" y="28" width="1" height="1" fill="#dcb47a"/>
  <rect x="8" y="28" width="1" height="1" fill="#e0b87d"/>
  <rect x="9" y="28" width="1" height="1" fill="#dcb47a"/>
  <rect x="10" y="28" width="1" height="1" fill="#e6c181"/>
  <rect x="11" y="28" width="1" height="1" fill="#997a4e"/>
  <rect x="12" y="28" width="1" height="1" fill="#386813"/>
  <rect x="13" y="28" width="1" height="1" fill="#72a727"/>
  <rect x="14" y="28" width="1" height="1" fill="#81b32f"/>
  <rect x="15" y="28" width="1" height="1" fill="#91c238"/>
  <rect x="16" y="28" width="1" height="1" fill="#466c17"/>
  <rect x="17" y="28" width="1" height="1" fill="#394f18"/>
  <rect x="18" y="28" width="1" height="1" fill="#91c238"/>
  <rect x="19" y="28" width="1" height="1" fill="#9dca43"/>
  <rect x="20" y="28" width="1" height="1" fill="#689926"/>
  <rect x="21" y="28" width="1" height="1" fill="#394f18"/>
  <rect x="22" y="28" width="1" height="1" fill="#53861b"/>
  <rect x="23" y="28" width="1" height="1" fill="#386813"/>
  <rect x="24" y="28" width="1" height="1" fill="#294e0f"/>
  <rect x="25" y="28" width="2" height="1" fill="#394f18"/>
  <rect x="27" y="28" width="1" height="1" fill="#294e0f"/>
  <rect x="28" y="28" width="1" height="1" fill="#233c0e"/>
  <rect x="29" y="28" width="1" height="1" fill="#386813"/>
  <rect x="30" y="28" width="1" height="1" fill="#72a727"/>
  <rect x="31" y="28" width="1" height="1" fill="#91c238"/>
  <rect x="32" y="28" width="1" height="1" fill="#86a63b"/>
  <rect x="33" y="28" width="1" height="1" fill="#466c17"/>
  <rect x="34" y="28" width="1" height="1" fill="#233c0e"/>
  <rect x="35" y="28" width="2" height="1" fill="#294e0f"/>
  <rect x="37" y="28" width="1" height="1" fill="#394f18"/>
  <rect x="38" y="28" width="1" height="1" fill="#6e5735"/>
  <rect x="39" y="28" width="1" height="1" fill="#b28e5d"/>
  <rect x="40" y="28" width="1" height="1" fill="#e6c181"/>
  <rect x="41" y="28" width="1" height="1" fill="#b1a26c"/>
  <rect x="42" y="28" width="1" height="1" fill="#989862"/>
  <rect x="43" y="28" width="2" height="1" fill="#d6ab70"/>
  <rect x="2" y="29" width="1" height="1" fill="#997a4e"/>
  <rect x="3" y="29" width="1" height="1" fill="#e6c181"/>
  <rect x="4" y="29" width="1" height="1" fill="#c4a26d"/>
  <rect x="5" y="29" width="1" height="1" fill="#989862"/>
  <rect x="6" y="29" width="1" height="1" fill="#b1a26c"/>
  <rect x="7" y="29" width="2" height="1" fill="#dcb47a"/>
  <rect x="9" y="29" width="2" height="1" fill="#e0b87d"/>
  <rect x="11" y="29" width="1" height="1" fill="#c4a26d"/>
  <rect x="12" y="29" width="1" height="1" fill="#6b3f25"/>
  <rect x="13" y="29" width="1" height="1" fill="#386813"/>
  <rect x="14" y="29" width="1" height="1" fill="#53861b"/>
  <rect x="15" y="29" width="1" height="1" fill="#689926"/>
  <rect x="16" y="29" width="1" height="1" fill="#386813"/>
  <rect x="17" y="29" width="1" height="1" fill="#81b32f"/>
  <rect x="18" y="29" width="1" height="1" fill="#9dca43"/>
  <rect x="19" y="29" width="1" height="1" fill="#72a727"/>
  <rect x="20" y="29" width="1" height="1" fill="#53861b"/>
  <rect x="21" y="29" width="2" height="1" fill="#233c0e"/>
  <rect x="23" y="29" width="1" height="1" fill="#53861b"/>
  <rect x="24" y="29" width="2" height="1" fill="#9dca43"/>
  <rect x="26" y="29" width="1" height="1" fill="#91c238"/>
  <rect x="27" y="29" width="1" height="1" fill="#53861b"/>
  <rect x="28" y="29" width="1" height="1" fill="#233c0e"/>
  <rect x="29" y="29" width="1" height="1" fill="#386813"/>
  <rect x="30" y="29" width="1" height="1" fill="#72a727"/>
  <rect x="31" y="29" width="1" height="1" fill="#81b32f"/>
  <rect x="32" y="29" width="1" height="1" fill="#91c238"/>
  <rect x="33" y="29" width="1" height="1" fill="#9dca43"/>
  <rect x="34" y="29" width="1" height="1" fill="#689926"/>
  <rect x="35" y="29" width="1" height="1" fill="#846b43"/>
  <rect x="36" y="29" width="1" height="1" fill="#997a4e"/>
  <rect x="37" y="29" width="1" height="1" fill="#ac804c"/>
  <rect x="38" y="29" width="1" height="1" fill="#c4a26d"/>
  <rect x="39" y="29" width="1" height="1" fill="#e0b87d"/>
  <rect x="40" y="29" width="1" height="1" fill="#e4bc80"/>
  <rect x="41" y="29" width="1" height="1" fill="#c4a26d"/>
  <rect x="42" y="29" width="1" height="1" fill="#989862"/>
  <rect x="43" y="29" width="1" height="1" fill="#b1a26c"/>
  <rect x="44" y="29" width="1" height="1" fill="#e4bc80"/>
  <rect x="45" y="29" width="1" height="1" fill="#997a4e"/>
  <rect x="2" y="30" width="1" height="1" fill="#b28e5d"/>
  <rect x="3" y="30" width="1" height="1" fill="#e6c181"/>
  <rect x="4" y="30" width="1" height="1" fill="#b1a26c"/>
  <rect x="5" y="30" width="1" height="1" fill="#989862"/>
  <rect x="6" y="30" width="1" height="1" fill="#c4a26d"/>
  <rect x="7" y="30" width="1" height="1" fill="#e0b87d"/>
  <rect x="8" y="30" width="1" height="1" fill="#dcb47a"/>
  <rect x="9" y="30" width="1" height="1" fill="#e0b87d"/>
  <rect x="10" y="30" width="2" height="1" fill="#e4bc80"/>
  <rect x="12" y="30" width="1" height="1" fill="#caa36c"/>
  <rect x="13" y="30" width="1" height="1" fill="#846b43"/>
  <rect x="14" y="30" width="2" height="1" fill="#394f18"/>
  <rect x="16" y="30" width="1" height="1" fill="#53861b"/>
  <rect x="17" y="30" width="1" height="1" fill="#91c238"/>
  <rect x="18" y="30" width="1" height="1" fill="#689926"/>
  <rect x="19" y="30" width="1" height="1" fill="#53861b"/>
  <rect x="20" y="30" width="1" height="1" fill="#294e0f"/>
  <rect x="21" y="30" width="1" height="1" fill="#394f18"/>
  <rect x="22" y="30" width="1" height="1" fill="#4a7918"/>
  <rect x="23" y="30" width="2" height="1" fill="#81b32f"/>
  <rect x="25" y="30" width="2" height="1" fill="#91c238"/>
  <rect x="27" y="30" width="1" height="1" fill="#81b32f"/>
  <rect x="28" y="30" width="1" height="1" fill="#466c17"/>
  <rect x="29" y="30" width="1" height="1" fill="#394f18"/>
  <rect x="30" y="30" width="1" height="1" fill="#386813"/>
  <rect x="31" y="30" width="1" height="1" fill="#53861b"/>
  <rect x="32" y="30" width="1" height="1" fill="#689926"/>
  <rect x="33" y="30" width="1" height="1" fill="#81b32f"/>
  <rect x="34" y="30" width="1" height="1" fill="#466c17"/>
  <rect x="35" y="30" width="1" height="1" fill="#997a4e"/>
  <rect x="36" y="30" width="1" height="1" fill="#e4bc80"/>
  <rect x="37" y="30" width="1" height="1" fill="#e0b87d"/>
  <rect x="38" y="30" width="1" height="1" fill="#e4bc80"/>
  <rect x="39" y="30" width="2" height="1" fill="#e0b87d"/>
  <rect x="41" y="30" width="1" height="1" fill="#dcb47a"/>
  <rect x="42" y="30" width="2" height="1" fill="#a39f69"/>
  <rect x="44" y="30" width="1" height="1" fill="#e6c181"/>
  <rect x="45" y="30" width="1" height="1" fill="#b28e5d"/>
  <rect x="2" y="31" width="1" height="1" fill="#c4a26d"/>
  <rect x="3" y="31" width="1" height="1" fill="#e4bc80"/>
  <rect x="4" y="31" width="1" height="1" fill="#a39f69"/>
  <rect x="5" y="31" width="1" height="1" fill="#989862"/>
  <rect x="6" y="31" width="1" height="1" fill="#dcb47a"/>
  <rect x="7" y="31" width="1" height="1" fill="#e0b87d"/>
  <rect x="8" y="31" width="2" height="1" fill="#d6ab70"/>
  <rect x="10" y="31" width="2" height="1" fill="#dcb47a"/>
  <rect x="12" y="31" width="1" height="1" fill="#e4bc80"/>
  <rect x="13" y="31" width="1" height="1" fill="#e0b87d"/>
  <rect x="14" y="31" width="1" height="1" fill="#caa36c"/>
  <rect x="15" y="31" width="1" height="1" fill="#b79a66"/>
  <rect x="16" y="31" width="1" height="1" fill="#6e5735"/>
  <rect x="17" y="31" width="1" height="1" fill="#4a7918"/>
  <rect x="18" y="31" width="1" height="1" fill="#386813"/>
  <rect x="19" y="31" width="1" height="1" fill="#294e0f"/>
  <rect x="20" y="31" width="1" height="1" fill="#6b3f25"/>
  <rect x="21" y="31" width="1" height="1" fill="#ac804c"/>
  <rect x="22" y="31" width="1" height="1" fill="#6e5735"/>
  <rect x="23" y="31" width="1" height="1" fill="#2d5a10"/>
  <rect x="24" y="31" width="3" height="1" fill="#4a7918"/>
  <rect x="27" y="31" width="1" height="1" fill="#386813"/>
  <rect x="28" y="31" width="1" height="1" fill="#394f18"/>
  <rect x="29" y="31" width="1" height="1" fill="#846b43"/>
  <rect x="30" y="31" width="1" height="1" fill="#6b3f25"/>
  <rect x="31" y="31" width="1" height="1" fill="#394f18"/>
  <rect x="32" y="31" width="2" height="1" fill="#2d5a10"/>
  <rect x="34" y="31" width="1" height="1" fill="#394f18"/>
  <rect x="35" y="31" width="1" height="1" fill="#ac804c"/>
  <rect x="36" y="31" width="1" height="1" fill="#e6c181"/>
  <rect x="37" y="31" width="1" height="1" fill="#e4bc80"/>
  <rect x="38" y="31" width="1" height="1" fill="#e0b87d"/>
  <rect x="39" y="31" width="3" height="1" fill="#dcb47a"/>
  <rect x="42" y="31" width="1" height="1" fill="#a39f69"/>
  <rect x="43" y="31" width="1" height="1" fill="#989862"/>
  <rect x="44" y="31" width="1" height="1" fill="#dcb47a"/>
  <rect x="45" y="31" width="1" height="1" fill="#c4a26d"/>
  <rect x="1" y="32" width="1" height="1" fill="#a5895a"/>
  <rect x="2" y="32" width="1" height="1" fill="#e6c181"/>
  <rect x="3" y="32" width="1" height="1" fill="#c2b36a"/>
  <rect x="4" y="32" width="1" height="1" fill="#989862"/>
  <rect x="5" y="32" width="1" height="1" fill="#b1a26c"/>
  <rect x="6" y="32" width="2" height="1" fill="#e4bc80"/>
  <rect x="8" y="32" width="1" height="1" fill="#dcb47a"/>
  <rect x="9" y="32" width="3" height="1" fill="#d6ab70"/>
  <rect x="12" y="32" width="1" height="1" fill="#dcb47a"/>
  <rect x="13" y="32" width="1" height="1" fill="#e0b87d"/>
  <rect x="14" y="32" width="1" height="1" fill="#e4bc80"/>
  <rect x="15" y="32" width="1" height="1" fill="#e6c181"/>
  <rect x="16" y="32" width="1" height="1" fill="#997a4e"/>
  <rect x="17" y="32" width="1" height="1" fill="#6b3f25"/>
  <rect x="18" y="32" width="1" height="1" fill="#6e5735"/>
  <rect x="19" y="32" width="1" height="1" fill="#997a4e"/>
  <rect x="20" y="32" width="1" height="1" fill="#caa36c"/>
  <rect x="21" y="32" width="1" height="1" fill="#e0b87d"/>
  <rect x="22" y="32" width="1" height="1" fill="#caa36c"/>
  <rect x="23" y="32" width="1" height="1" fill="#846b43"/>
  <rect x="24" y="32" width="3" height="1" fill="#394f18"/>
  <rect x="27" y="32" width="1" height="1" fill="#6e5735"/>
  <rect x="28" y="32" width="1" height="1" fill="#997a4e"/>
  <rect x="29" y="32" width="1" height="1" fill="#d6ab70"/>
  <rect x="30" y="32" width="1" height="1" fill="#caa36c"/>
  <rect x="31" y="32" width="1" height="1" fill="#ac804c"/>
  <rect x="32" y="32" width="1" height="1" fill="#846b43"/>
  <rect x="33" y="32" width="1" height="1" fill="#997a4e"/>
  <rect x="34" y="32" width="1" height="1" fill="#b28e5d"/>
  <rect x="35" y="32" width="2" height="1" fill="#d6ab70"/>
  <rect x="37" y="32" width="1" height="1" fill="#b79a66"/>
  <rect x="38" y="32" width="1" height="1" fill="#d6ab70"/>
  <rect x="39" y="32" width="3" height="1" fill="#e0b87d"/>
  <rect x="42" y="32" width="1" height="1" fill="#b1a26c"/>
  <rect x="43" y="32" width="1" height="1" fill="#989862"/>
  <rect x="44" y="32" width="1" height="1" fill="#c4a26d"/>
  <rect x="45" y="32" width="1" height="1" fill="#e4bc80"/>
  <rect x="46" y="32" width="1" height="1" fill="#997a4e"/>
  <rect x="1" y="33" width="1" height="1" fill="#997a4e"/>
  <rect x="2" y="33" width="1" height="1" fill="#e0b87d"/>
  <rect x="3" y="33" width="1" height="1" fill="#b1a26c"/>
  <rect x="4" y="33" width="1" height="1" fill="#a39f69"/>
  <rect x="5" y="33" width="1" height="1" fill="#b5a96a"/>
  <rect x="6" y="33" width="1" height="1" fill="#e0b87d"/>
  <rect x="7" y="33" width="1" height="1" fill="#dcb47a"/>
  <rect x="8" y="33" width="1" height="1" fill="#caa36c"/>
  <rect x="9" y="33" width="1" height="1" fill="#b28e5d"/>
  <rect x="10" y="33" width="1" height="1" fill="#c4a26d"/>
  <rect x="11" y="33" width="1" height="1" fill="#dcb47a"/>
  <rect x="12" y="33" width="2" height="1" fill="#e4bc80"/>
  <rect x="14" y="33" width="1" height="1" fill="#dcb47a"/>
  <rect x="15" y="33" width="1" height="1" fill="#d6ab70"/>
  <rect x="16" y="33" width="3" height="1" fill="#e0b87d"/>
  <rect x="19" y="33" width="2" height="1" fill="#e6c181"/>
  <rect x="21" y="33" width="3" height="1" fill="#dcb47a"/>
  <rect x="24" y="33" width="1" height="1" fill="#d6ab70"/>
  <rect x="25" y="33" width="2" height="1" fill="#caa36c"/>
  <rect x="27" y="33" width="1" height="1" fill="#dcb47a"/>
  <rect x="28" y="33" width="4" height="1" fill="#e4bc80"/>
  <rect x="32" y="33" width="1" height="1" fill="#e0b87d"/>
  <rect x="33" y="33" width="2" height="1" fill="#e4bc80"/>
  <rect x="35" y="33" width="1" height="1" fill="#caa36c"/>
  <rect x="36" y="33" width="1" height="1" fill="#b79a66"/>
  <rect x="37" y="33" width="1" height="1" fill="#dcb47a"/>
  <rect x="38" y="33" width="1" height="1" fill="#e6c181"/>
  <rect x="39" y="33" width="1" height="1" fill="#dcb47a"/>
  <rect x="40" y="33" width="1" height="1" fill="#d6ab70"/>
  <rect x="41" y="33" width="1" height="1" fill="#e6c181"/>
  <rect x="42" y="33" width="1" height="1" fill="#c2b36a"/>
  <rect x="43" y="33" width="1" height="1" fill="#a39f69"/>
  <rect x="44" y="33" width="1" height="1" fill="#b1a26c"/>
  <rect x="45" y="33" width="1" height="1" fill="#e6c181"/>
  <rect x="46" y="33" width="1" height="1" fill="#b28e5d"/>
  <rect x="1" y="34" width="5" height="1" fill="#846b43"/>
  <rect x="6" y="34" width="4" height="1" fill="#997a4e"/>
  <rect x="10" y="34" width="1" height="1" fill="#b28e5d"/>
  <rect x="11" y="34" width="1" height="1" fill="#c4a26d"/>
  <rect x="12" y="34" width="1" height="1" fill="#b79a66"/>
  <rect x="13" y="34" width="1" height="1" fill="#b28e5d"/>
  <rect x="14" y="34" width="1" height="1" fill="#997a4e"/>
  <rect x="15" y="34" width="1" height="1" fill="#846b43"/>
  <rect x="16" y="34" width="1" height="1" fill="#ac804c"/>
  <rect x="17" y="34" width="1" height="1" fill="#b28e5d"/>
  <rect x="18" y="34" width="1" height="1" fill="#c4a26d"/>
  <rect x="19" y="34" width="2" height="1" fill="#b79a66"/>
  <rect x="21" y="34" width="1" height="1" fill="#b28e5d"/>
  <rect x="22" y="34" width="2" height="1" fill="#997a4e"/>
  <rect x="24" y="34" width="1" height="1" fill="#b28e5d"/>
  <rect x="25" y="34" width="2" height="1" fill="#b79a66"/>
  <rect x="27" y="34" width="1" height="1" fill="#c4a26d"/>
  <rect x="28" y="34" width="2" height="1" fill="#b79a66"/>
  <rect x="30" y="34" width="1" height="1" fill="#b28e5d"/>
  <rect x="31" y="34" width="2" height="1" fill="#997a4e"/>
  <rect x="33" y="34" width="1" height="1" fill="#ac804c"/>
  <rect x="34" y="34" width="2" height="1" fill="#b79a66"/>
  <rect x="36" y="34" width="1" height="1" fill="#c4a26d"/>
  <rect x="37" y="34" width="1" height="1" fill="#b28e5d"/>
  <rect x="38" y="34" width="1" height="1" fill="#997a4e"/>
  <rect x="39" y="34" width="2" height="1" fill="#846b43"/>
  <rect x="41" y="34" width="2" height="1" fill="#a5895a"/>
  <rect x="43" y="34" width="2" height="1" fill="#846b43"/>
  <rect x="45" y="34" width="1" height="1" fill="#a5895a"/>
  <rect x="46" y="34" width="1" height="1" fill="#997a4e"/>
</svg>