<?xml version="1.0" encoding="UTF-8"?>
<svg xmlns="http://www.w3.org/2000/svg" width="48" height="48" viewBox="0 0 48 48" shape-rendering="crispEdges" role="img">
  <title>Rice Flour</title>
  <g fill="#987040">
    <rect x="5" y="12" width="1" height="1"/>
    <rect x="9" y="12" width="3" height="1"/>
    <rect x="13" y="12" width="1" height="1"/>
    <rect x="26" y="12" width="2" height="1"/>
    <rect x="37" y="12" width="1" height="1"/>
    <rect x="42" y="12" width="1" height="1"/>
    <rect x="43" y="17" width="1" height="1"/>
    <rect x="3" y="21" width="1" height="1"/>
    <rect x="2" y="29" width="1" height="1"/>
    <rect x="45" y="30" width="1" height="1"/>
    <rect x="45" y="37" width="1" height="1"/>
  </g>
  <g fill="#a88050">
    <rect x="6" y="12" width="1" height="1"/>
    <rect x="30" y="12" width="1" height="1"/>
    <rect x="45" y="31" width="1" height="1"/>
    <rect x="1" y="36" width="1" height="1"/>
  </g>
  <g fill="#906038">
    <rect x="7" y="12" width="1" height="1"/>
    <rect x="24" y="38" width="1" height="1"/>
  </g>
  <g fill="#906040">
    <rect x="8" y="12" width="1" height="1"/>
  </g>
  <g fill="#906840">
    <rect x="12" y="12" width="1" height="1"/>
    <rect x="14" y="12" width="1" height="1"/>
    <rect x="24" y="12" width="2" height="1"/>
    <rect x="43" y="16" width="1" height="1"/>
    <rect x="2" y="27" width="1" height="1"/>
    <rect x="8" y="38" width="1" height="1"/>
    <rect x="26" y="38" width="1" height="1"/>
    <rect x="31" y="38" width="1" height="1"/>
    <rect x="33" y="38" width="1" height="1"/>
  </g>
  <g fill="#987048">
    <rect x="15" y="12" width="1" height="1"/>
    <rect x="29" y="12" width="1" height="1"/>
    <rect x="44" y="22" width="1" height="1"/>
    <rect x="1" y="35" width="1" height="1"/>
    <rect x="46" y="36" width="1" height="1"/>
  </g>
  <g fill="#b89058">
    <rect x="16" y="12" width="1" height="1"/>
    <rect x="2" y="31" width="1" height="1"/>
    <rect x="33" y="35" width="1" height="1"/>
    <rect x="18" y="37" width="2" height="1"/>
    <rect x="28" y="37" width="2" height="1"/>
  </g>
  <g fill="#b89060">
    <rect x="17" y="12" width="4" height="1"/>
    <rect x="31" y="12" width="4" height="1"/>
  </g>
  <g fill="#b08858">
    <rect x="21" y="12" width="2" height="1"/>
    <rect x="41" y="12" width="1" height="1"/>
    <rect x="3" y="23" width="1" height="1"/>
    <rect x="44" y="23" width="1" height="1"/>
  </g>
  <g fill="#a07848">
    <rect x="23" y="12" width="1" height="1"/>
    <rect x="28" y="12" width="1" height="1"/>
    <rect x="4" y="15" width="1" height="1"/>
    <rect x="3" y="22" width="1" height="1"/>
    <rect x="2" y="30" width="1" height="1"/>
  </g>
  <g fill="#a87848">
    <rect x="35" y="12" width="1" height="1"/>
    <rect x="4" y="16" width="1" height="1"/>
  </g>
  <g fill="#886038">
    <rect x="36" y="12" width="1" height="1"/>
    <rect x="1" y="33" width="1" height="1"/>
    <rect x="46" y="37" width="1" height="1"/>
    <rect x="9" y="38" width="1" height="1"/>
    <rect x="23" y="38" width="1" height="1"/>
    <rect x="34" y="38" width="1" height="1"/>
  </g>
  <g fill="#986840">
    <rect x="38" y="12" width="1" height="1"/>
  </g>
  <g fill="#a07048">
    <rect x="39" y="12" width="1" height="1"/>
    <rect x="3" y="37" width="1" height="1"/>
  </g>
  <g fill="#a06040">
    <rect x="40" y="12" width="1" height="1"/>
  </g>
  <g fill="#805830">
    <rect x="4" y="13" width="1" height="1"/>
    <rect x="45" y="26" width="1" height="1"/>
    <rect x="45" y="27" width="1" height="1"/>
    <rect x="46" y="34" width="1" height="1"/>
    <rect x="6" y="38" width="1" height="1"/>
    <rect x="16" y="38" width="1" height="1"/>
  </g>
  <g fill="#c89860">
    <rect x="5" y="13" width="1" height="1"/>
    <rect x="13" y="15" width="1" height="1"/>
    <rect x="42" y="15" width="1" height="1"/>
    <rect x="11" y="16" width="2" height="1"/>
    <rect x="10" y="17" width="1" height="1"/>
    <rect x="42" y="19" width="1" height="1"/>
    <rect x="45" y="33" width="1" height="1"/>
    <rect x="34" y="34" width="1" height="1"/>
    <rect x="22" y="36" width="1" height="1"/>
    <rect x="8" y="37" width="1" height="1"/>
    <rect x="16" y="37" width="1" height="1"/>
    <rect x="30" y="37" width="1" height="1"/>
    <rect x="37" y="37" width="1" height="1"/>
    <rect x="40" y="37" width="1" height="1"/>
  </g>
  <g fill="#d8b078">
    <rect x="6" y="13" width="1" height="1"/>
    <rect x="11" y="13" width="1" height="1"/>
    <rect x="25" y="13" width="1" height="1"/>
    <rect x="34" y="13" width="1" height="1"/>
    <rect x="37" y="13" width="1" height="1"/>
    <rect x="41" y="13" width="1" height="1"/>
    <rect x="5" y="14" width="1" height="1"/>
    <rect x="9" y="14" width="1" height="1"/>
    <rect x="15" y="14" width="2" height="1"/>
    <rect x="18" y="14" width="2" height="1"/>
    <rect x="22" y="14" width="1" height="1"/>
    <rect x="26" y="14" width="1" height="1"/>
    <rect x="36" y="14" width="2" height="1"/>
    <rect x="19" y="15" width="1" height="1"/>
    <rect x="22" y="15" width="1" height="1"/>
    <rect x="30" y="15" width="1" height="1"/>
    <rect x="33" y="15" width="1" height="1"/>
    <rect x="36" y="15" width="1" height="1"/>
    <rect x="13" y="16" width="1" height="1"/>
    <rect x="15" y="16" width="1" height="1"/>
    <rect x="18" y="16" width="2" height="1"/>
    <rect x="32" y="16" width="1" height="1"/>
    <rect x="34" y="16" width="1" height="1"/>
    <rect x="37" y="16" width="1" height="1"/>
    <rect x="12" y="17" width="1" height="1"/>
    <rect x="15" y="17" width="1" height="1"/>
    <rect x="17" y="17" width="1" height="1"/>
    <rect x="42" y="17" width="1" height="1"/>
    <rect x="4" y="18" width="2" height="1"/>
    <rect x="11" y="18" width="1" height="1"/>
    <rect x="36" y="18" width="2" height="1"/>
    <rect x="9" y="19" width="1" height="1"/>
    <rect x="35" y="19" width="1" height="1"/>
    <rect x="37" y="19" width="1" height="1"/>
    <rect x="4" y="20" width="2" height="1"/>
    <rect x="37" y="20" width="2" height="1"/>
    <rect x="5" y="21" width="1" height="1"/>
    <rect x="9" y="21" width="1" height="1"/>
    <rect x="11" y="21" width="1" height="1"/>
    <rect x="39" y="21" width="1" height="1"/>
    <rect x="5" y="22" width="1" height="1"/>
    <rect x="9" y="22" width="1" height="1"/>
    <rect x="39" y="23" width="1" height="1"/>
    <rect x="4" y="24" width="1" height="1"/>
    <rect x="9" y="24" width="1" height="1"/>
    <rect x="8" y="25" width="1" height="1"/>
    <rect x="43" y="25" width="1" height="1"/>
    <rect x="4" y="26" width="1" height="1"/>
    <rect x="43" y="26" width="1" height="1"/>
    <rect x="4" y="27" width="1" height="1"/>
    <rect x="38" y="27" width="1" height="1"/>
    <rect x="4" y="28" width="1" height="1"/>
    <rect x="8" y="28" width="2" height="1"/>
    <rect x="39" y="28" width="1" height="1"/>
    <rect x="9" y="29" width="1" height="1"/>
    <rect x="39" y="30" width="1" height="1"/>
    <rect x="44" y="30" width="1" height="1"/>
    <rect x="3" y="31" width="1" height="1"/>
    <rect x="44" y="31" width="1" height="1"/>
    <rect x="3" y="32" width="1" height="1"/>
    <rect x="7" y="32" width="1" height="1"/>
    <rect x="11" y="32" width="1" height="1"/>
    <rect x="40" y="32" width="1" height="1"/>
    <rect x="39" y="33" width="2" height="1"/>
    <rect x="7" y="34" width="2" height="1"/>
    <rect x="15" y="34" width="1" height="1"/>
    <rect x="32" y="34" width="1" height="1"/>
    <rect x="39" y="34" width="2" height="1"/>
    <rect x="2" y="35" width="1" height="1"/>
    <rect x="8" y="35" width="1" height="1"/>
    <rect x="10" y="35" width="3" height="1"/>
    <rect x="27" y="35" width="1" height="1"/>
    <rect x="29" y="35" width="1" height="1"/>
    <rect x="34" y="35" width="1" height="1"/>
    <rect x="38" y="35" width="3" height="1"/>
    <rect x="8" y="36" width="1" height="1"/>
    <rect x="12" y="36" width="2" height="1"/>
    <rect x="23" y="36" width="1" height="1"/>
    <rect x="29" y="36" width="1" height="1"/>
    <rect x="38" y="36" width="2" height="1"/>
    <rect x="10" y="37" width="1" height="1"/>
    <rect x="32" y="37" width="1" height="1"/>
    <rect x="34" y="37" width="1" height="1"/>
  </g>
  <g fill="#b87050">
    <rect x="7" y="13" width="1" height="1"/>
    <rect x="41" y="29" width="1" height="1"/>
    <rect x="41" y="32" width="1" height="1"/>
  </g>
  <g fill="#c07858">
    <rect x="8" y="13" width="1" height="1"/>
    <rect x="7" y="14" width="2" height="1"/>
    <rect x="41" y="18" width="1" height="1"/>
    <rect x="40" y="21" width="1" height="1"/>
    <rect x="42" y="28" width="1" height="1"/>
    <rect x="5" y="29" width="1" height="1"/>
    <rect x="42" y="36" width="1" height="1"/>
  </g>
  <g fill="#d8a878">
    <rect x="9" y="13" width="1" height="1"/>
    <rect x="38" y="14" width="1" height="1"/>
    <rect x="39" y="20" width="1" height="1"/>
    <rect x="43" y="21" width="1" height="1"/>
    <rect x="7" y="29" width="1" height="1"/>
    <rect x="40" y="30" width="1" height="1"/>
    <rect x="11" y="31" width="1" height="1"/>
    <rect x="44" y="36" width="1" height="1"/>
  </g>
  <g fill="#e0b878">
    <rect x="10" y="13" width="1" height="1"/>
    <rect x="23" y="14" width="1" height="1"/>
    <rect x="29" y="14" width="1" height="1"/>
    <rect x="35" y="14" width="1" height="1"/>
    <rect x="18" y="15" width="1" height="1"/>
    <rect x="32" y="15" width="1" height="1"/>
    <rect x="35" y="15" width="1" height="1"/>
    <rect x="33" y="16" width="1" height="1"/>
    <rect x="39" y="24" width="1" height="1"/>
    <rect x="7" y="31" width="1" height="1"/>
    <rect x="8" y="32" width="1" height="1"/>
    <rect x="38" y="33" width="1" height="1"/>
    <rect x="14" y="34" width="1" height="1"/>
    <rect x="14" y="35" width="1" height="1"/>
    <rect x="30" y="35" width="1" height="1"/>
    <rect x="14" y="36" width="1" height="1"/>
  </g>
  <g fill="#d8b070">
    <rect x="12" y="13" width="1" height="1"/>
    <rect x="26" y="13" width="1" height="1"/>
    <rect x="21" y="14" width="1" height="1"/>
    <rect x="27" y="14" width="1" height="1"/>
    <rect x="29" y="15" width="1" height="1"/>
    <rect x="34" y="17" width="1" height="1"/>
    <rect x="39" y="29" width="1" height="1"/>
    <rect x="12" y="34" width="1" height="1"/>
    <rect x="9" y="35" width="1" height="1"/>
    <rect x="45" y="36" width="1" height="1"/>
  </g>
  <g fill="#d8a870">
    <rect x="13" y="13" width="1" height="1"/>
    <rect x="21" y="13" width="1" height="1"/>
    <rect x="27" y="13" width="1" height="1"/>
    <rect x="6" y="14" width="1" height="1"/>
    <rect x="12" y="14" width="1" height="1"/>
    <rect x="30" y="14" width="1" height="1"/>
    <rect x="5" y="15" width="1" height="1"/>
    <rect x="31" y="15" width="1" height="1"/>
    <rect x="5" y="16" width="1" height="1"/>
    <rect x="33" y="17" width="1" height="1"/>
    <rect x="4" y="19" width="2" height="1"/>
    <rect x="42" y="20" width="1" height="1"/>
    <rect x="38" y="21" width="1" height="1"/>
    <rect x="8" y="22" width="1" height="1"/>
    <rect x="43" y="23" width="1" height="1"/>
    <rect x="4" y="25" width="1" height="1"/>
    <rect x="39" y="26" width="1" height="1"/>
    <rect x="38" y="29" width="1" height="1"/>
    <rect x="9" y="31" width="1" height="1"/>
    <rect x="9" y="32" width="1" height="1"/>
    <rect x="11" y="33" width="2" height="1"/>
    <rect x="44" y="33" width="1" height="1"/>
    <rect x="7" y="35" width="1" height="1"/>
    <rect x="31" y="35" width="1" height="1"/>
    <rect x="44" y="35" width="2" height="1"/>
    <rect x="9" y="36" width="3" height="1"/>
    <rect x="33" y="36" width="1" height="1"/>
  </g>
  <g fill="#d0a870">
    <rect x="14" y="13" width="2" height="1"/>
    <rect x="24" y="13" width="1" height="1"/>
    <rect x="36" y="13" width="1" height="1"/>
    <rect x="20" y="14" width="1" height="1"/>
    <rect x="28" y="15" width="1" height="1"/>
    <rect x="30" y="16" width="2" height="1"/>
    <rect x="42" y="16" width="1" height="1"/>
    <rect x="9" y="18" width="1" height="1"/>
    <rect x="33" y="18" width="2" height="1"/>
    <rect x="36" y="19" width="1" height="1"/>
    <rect x="36" y="20" width="1" height="1"/>
    <rect x="43" y="20" width="1" height="1"/>
    <rect x="4" y="21" width="1" height="1"/>
    <rect x="38" y="23" width="1" height="1"/>
    <rect x="38" y="25" width="1" height="1"/>
    <rect x="9" y="26" width="1" height="1"/>
    <rect x="38" y="26" width="1" height="1"/>
    <rect x="44" y="26" width="1" height="1"/>
    <rect x="3" y="27" width="1" height="1"/>
    <rect x="8" y="27" width="1" height="1"/>
    <rect x="3" y="29" width="1" height="1"/>
    <rect x="4" y="30" width="1" height="1"/>
    <rect x="9" y="30" width="1" height="1"/>
    <rect x="10" y="31" width="1" height="1"/>
    <rect x="2" y="33" width="1" height="1"/>
    <rect x="10" y="33" width="1" height="1"/>
    <rect x="36" y="33" width="1" height="1"/>
    <rect x="2" y="34" width="1" height="1"/>
    <rect x="10" y="34" width="2" height="1"/>
    <rect x="31" y="34" width="1" height="1"/>
    <rect x="35" y="34" width="1" height="1"/>
    <rect x="45" y="34" width="1" height="1"/>
    <rect x="24" y="35" width="1" height="1"/>
    <rect x="2" y="36" width="1" height="1"/>
    <rect x="20" y="36" width="1" height="1"/>
    <rect x="9" y="37" width="1" height="1"/>
  </g>
  <g fill="#e0b880">
    <rect x="16" y="13" width="1" height="1"/>
    <rect x="18" y="13" width="3" height="1"/>
    <rect x="31" y="13" width="1" height="1"/>
    <rect x="33" y="13" width="1" height="1"/>
    <rect x="10" y="14" width="2" height="1"/>
    <rect x="17" y="14" width="1" height="1"/>
    <rect x="31" y="14" width="4" height="1"/>
    <rect x="10" y="15" width="1" height="1"/>
    <rect x="14" y="15" width="4" height="1"/>
    <rect x="20" y="15" width="2" height="1"/>
    <rect x="34" y="15" width="1" height="1"/>
    <rect x="37" y="15" width="2" height="1"/>
    <rect x="9" y="16" width="2" height="1"/>
    <rect x="14" y="16" width="1" height="1"/>
    <rect x="16" y="16" width="1" height="1"/>
    <rect x="36" y="16" width="1" height="1"/>
    <rect x="38" y="16" width="1" height="1"/>
    <rect x="9" y="17" width="1" height="1"/>
    <rect x="13" y="17" width="2" height="1"/>
    <rect x="16" y="17" width="1" height="1"/>
    <rect x="36" y="17" width="3" height="1"/>
    <rect x="12" y="18" width="3" height="1"/>
    <rect x="38" y="18" width="1" height="1"/>
    <rect x="10" y="19" width="4" height="1"/>
    <rect x="38" y="19" width="1" height="1"/>
    <rect x="9" y="20" width="4" height="1"/>
    <rect x="10" y="21" width="1" height="1"/>
    <rect x="42" y="21" width="1" height="1"/>
    <rect x="10" y="22" width="1" height="1"/>
    <rect x="4" y="23" width="1" height="1"/>
    <rect x="8" y="23" width="1" height="1"/>
    <rect x="10" y="23" width="1" height="1"/>
    <rect x="43" y="24" width="1" height="1"/>
    <rect x="39" y="25" width="1" height="1"/>
    <rect x="43" y="27" width="1" height="1"/>
    <rect x="4" y="29" width="1" height="1"/>
    <rect x="8" y="29" width="1" height="1"/>
    <rect x="3" y="30" width="1" height="1"/>
    <rect x="7" y="30" width="1" height="1"/>
    <rect x="8" y="31" width="1" height="1"/>
    <rect x="39" y="31" width="2" height="1"/>
    <rect x="39" y="32" width="1" height="1"/>
    <rect x="3" y="33" width="1" height="1"/>
    <rect x="7" y="33" width="2" height="1"/>
    <rect x="13" y="33" width="1" height="1"/>
    <rect x="37" y="33" width="1" height="1"/>
    <rect x="3" y="34" width="1" height="1"/>
    <rect x="9" y="34" width="1" height="1"/>
    <rect x="36" y="34" width="3" height="1"/>
    <rect x="3" y="35" width="1" height="1"/>
    <rect x="15" y="35" width="5" height="1"/>
    <rect x="35" y="35" width="3" height="1"/>
    <rect x="3" y="36" width="1" height="1"/>
    <rect x="6" y="36" width="2" height="1"/>
    <rect x="19" y="36" width="1" height="1"/>
    <rect x="24" y="36" width="1" height="1"/>
    <rect x="34" y="36" width="1" height="1"/>
    <rect x="37" y="36" width="1" height="1"/>
    <rect x="40" y="36" width="2" height="1"/>
    <rect x="11" y="37" width="4" height="1"/>
    <rect x="23" y="37" width="1" height="1"/>
  </g>
  <g fill="#e0c088">
    <rect x="17" y="13" width="1" height="1"/>
    <rect x="5" y="17" width="1" height="1"/>
    <rect x="15" y="18" width="1" height="1"/>
    <rect x="11" y="22" width="1" height="1"/>
    <rect x="9" y="23" width="1" height="1"/>
    <rect x="38" y="32" width="1" height="1"/>
    <rect x="16" y="36" width="3" height="1"/>
    <rect x="25" y="36" width="1" height="1"/>
    <rect x="35" y="36" width="2" height="1"/>
  </g>
  <g fill="#d0a068">
    <rect x="22" y="13" width="2" height="1"/>
    <rect x="29" y="13" width="1" height="1"/>
    <rect x="35" y="13" width="1" height="1"/>
    <rect x="13" y="14" width="1" height="1"/>
    <rect x="38" y="22" width="1" height="1"/>
    <rect x="43" y="22" width="1" height="1"/>
    <rect x="44" y="27" width="1" height="1"/>
    <rect x="21" y="35" width="1" height="1"/>
    <rect x="35" y="37" width="1" height="1"/>
  </g>
  <g fill="#d0a868">
    <rect x="28" y="13" width="1" height="1"/>
    <rect x="14" y="14" width="1" height="1"/>
    <rect x="35" y="18" width="1" height="1"/>
    <rect x="10" y="32" width="1" height="1"/>
    <rect x="44" y="32" width="1" height="1"/>
    <rect x="9" y="33" width="1" height="1"/>
  </g>
  <g fill="#e0b078">
    <rect x="30" y="13" width="1" height="1"/>
    <rect x="28" y="14" width="1" height="1"/>
    <rect x="17" y="16" width="1" height="1"/>
    <rect x="35" y="16" width="1" height="1"/>
    <rect x="35" y="17" width="1" height="1"/>
    <rect x="39" y="27" width="1" height="1"/>
    <rect x="8" y="30" width="1" height="1"/>
    <rect x="13" y="34" width="1" height="1"/>
    <rect x="13" y="35" width="1" height="1"/>
  </g>
  <g fill="#e0c080">
    <rect x="32" y="13" width="1" height="1"/>
    <rect x="15" y="36" width="1" height="1"/>
    <rect x="28" y="36" width="1" height="1"/>
    <rect x="33" y="37" width="1" height="1"/>
  </g>
  <g fill="#d09870">
    <rect x="38" y="13" width="1" height="1"/>
    <rect x="8" y="20" width="1" height="1"/>
    <rect x="42" y="24" width="1" height="1"/>
    <rect x="5" y="25" width="1" height="1"/>
    <rect x="7" y="25" width="1" height="1"/>
  </g>
  <g fill="#c08060">
    <rect x="39" y="13" width="1" height="1"/>
    <rect x="7" y="19" width="1" height="1"/>
    <rect x="6" y="23" width="1" height="1"/>
    <rect x="7" y="24" width="1" height="1"/>
    <rect x="40" y="25" width="1" height="1"/>
    <rect x="5" y="30" width="1" height="1"/>
    <rect x="4" y="33" width="1" height="1"/>
    <rect x="5" y="35" width="1" height="1"/>
  </g>
  <g fill="#b87058">
    <rect x="40" y="13" width="1" height="1"/>
    <rect x="39" y="14" width="1" height="1"/>
    <rect x="39" y="15" width="1" height="1"/>
    <rect x="8" y="16" width="1" height="1"/>
    <rect x="40" y="19" width="1" height="1"/>
    <rect x="6" y="20" width="1" height="1"/>
    <rect x="40" y="20" width="1" height="1"/>
    <rect x="6" y="29" width="1" height="1"/>
    <rect x="41" y="31" width="1" height="1"/>
    <rect x="4" y="35" width="1" height="1"/>
  </g>
  <g fill="#c09860">
    <rect x="42" y="13" width="1" height="1"/>
    <rect x="11" y="17" width="1" height="1"/>
    <rect x="37" y="31" width="1" height="1"/>
    <rect x="35" y="33" width="1" height="1"/>
    <rect x="33" y="34" width="1" height="1"/>
    <rect x="26" y="37" width="2" height="1"/>
    <rect x="36" y="37" width="1" height="1"/>
    <rect x="41" y="37" width="1" height="1"/>
  </g>
  <g fill="#704828">
    <rect x="43" y="13" width="1" height="1"/>
    <rect x="43" y="14" width="1" height="1"/>
    <rect x="3" y="19" width="1" height="1"/>
    <rect x="36" y="38" width="1" height="1"/>
    <rect x="41" y="38" width="1" height="1"/>
    <rect x="43" y="38" width="1" height="1"/>
  </g>
  <g fill="#906838">
    <rect x="4" y="14" width="1" height="1"/>
    <rect x="44" y="21" width="1" height="1"/>
    <rect x="45" y="29" width="1" height="1"/>
    <rect x="1" y="34" width="1" height="1"/>
    <rect x="1" y="37" width="1" height="1"/>
    <rect x="10" y="38" width="6" height="1"/>
    <rect x="21" y="38" width="2" height="1"/>
    <rect x="25" y="38" width="1" height="1"/>
    <rect x="32" y="38" width="1" height="1"/>
  </g>
  <g fill="#e0b888">
    <rect x="24" y="14" width="1" height="1"/>
    <rect x="14" y="19" width="1" height="1"/>
    <rect x="12" y="21" width="1" height="1"/>
    <rect x="9" y="27" width="1" height="1"/>
    <rect x="12" y="32" width="1" height="1"/>
    <rect x="16" y="34" width="1" height="1"/>
  </g>
  <g fill="#e0c090">
    <rect x="25" y="14" width="1" height="1"/>
    <rect x="20" y="16" width="1" height="1"/>
    <rect x="15" y="19" width="1" height="1"/>
    <rect x="13" y="20" width="1" height="1"/>
  </g>
  <g fill="#c08058">
    <rect x="40" y="14" width="1" height="1"/>
    <rect x="42" y="25" width="1" height="1"/>
    <rect x="41" y="26" width="1" height="1"/>
  </g>
  <g fill="#d8b080">
    <rect x="41" y="14" width="1" height="1"/>
    <rect x="29" y="16" width="1" height="1"/>
    <rect x="18" y="17" width="1" height="1"/>
    <rect x="32" y="17" width="1" height="1"/>
    <rect x="38" y="28" width="1" height="1"/>
    <rect x="11" y="29" width="1" height="1"/>
    <rect x="15" y="33" width="1" height="1"/>
    <rect x="44" y="34" width="1" height="1"/>
    <rect x="20" y="35" width="1" height="1"/>
    <rect x="26" y="35" width="1" height="1"/>
  </g>
  <g fill="#c8a068">
    <rect x="42" y="14" width="1" height="1"/>
    <rect x="12" y="15" width="1" height="1"/>
    <rect x="4" y="17" width="1" height="1"/>
    <rect x="10" y="18" width="1" height="1"/>
    <rect x="42" y="18" width="1" height="1"/>
    <rect x="37" y="21" width="1" height="1"/>
    <rect x="3" y="24" width="1" height="1"/>
    <rect x="3" y="25" width="1" height="1"/>
    <rect x="3" y="26" width="1" height="1"/>
    <rect x="43" y="28" width="1" height="1"/>
    <rect x="37" y="29" width="1" height="1"/>
    <rect x="44" y="29" width="1" height="1"/>
    <rect x="38" y="30" width="1" height="1"/>
    <rect x="38" y="31" width="1" height="1"/>
    <rect x="37" y="32" width="1" height="1"/>
    <rect x="22" y="35" width="1" height="1"/>
    <rect x="30" y="36" width="1" height="1"/>
    <rect x="15" y="37" width="1" height="1"/>
    <rect x="20" y="37" width="2" height="1"/>
    <rect x="25" y="37" width="1" height="1"/>
    <rect x="31" y="37" width="1" height="1"/>
    <rect x="38" y="37" width="2" height="1"/>
  </g>
  <g fill="#d0a070">
    <rect x="6" y="15" width="1" height="1"/>
    <rect x="7" y="17" width="1" height="1"/>
    <rect x="39" y="19" width="1" height="1"/>
    <rect x="8" y="21" width="1" height="1"/>
    <rect x="39" y="22" width="1" height="1"/>
    <rect x="40" y="28" width="1" height="1"/>
    <rect x="40" y="29" width="1" height="1"/>
    <rect x="43" y="30" width="1" height="1"/>
    <rect x="4" y="31" width="1" height="1"/>
    <rect x="6" y="35" width="1" height="1"/>
  </g>
  <g fill="#c88868">
    <rect x="7" y="15" width="1" height="1"/>
    <rect x="7" y="16" width="1" height="1"/>
    <rect x="6" y="17" width="1" height="1"/>
    <rect x="8" y="17" width="1" height="1"/>
    <rect x="39" y="17" width="1" height="1"/>
    <rect x="41" y="17" width="1" height="1"/>
    <rect x="7" y="18" width="1" height="1"/>
    <rect x="6" y="24" width="1" height="1"/>
    <rect x="4" y="32" width="1" height="1"/>
  </g>
  <g fill="#b06050">
    <rect x="8" y="15" width="1" height="1"/>
  </g>
  <g fill="#e0b080">
    <rect x="9" y="15" width="1" height="1"/>
  </g>
  <g fill="#d8b878">
    <rect x="11" y="15" width="1" height="1"/>
    <rect x="24" y="37" width="1" height="1"/>
  </g>
  <g fill="#f0d8b8">
    <rect x="23" y="15" width="1" height="1"/>
    <rect x="26" y="22" width="1" height="1"/>
    <rect x="25" y="26" width="1" height="1"/>
    <rect x="28" y="28" width="1" height="1"/>
    <rect x="26" y="29" width="1" height="1"/>
    <rect x="14" y="30" width="1" height="1"/>
    <rect x="25" y="30" width="1" height="1"/>
    <rect x="29" y="31" width="1" height="1"/>
    <rect x="16" y="32" width="1" height="1"/>
    <rect x="24" y="32" width="1" height="1"/>
    <rect x="27" y="32" width="1" height="1"/>
    <rect x="24" y="33" width="1" height="1"/>
    <rect x="29" y="33" width="1" height="1"/>
  </g>
  <g fill="#f8f0d8">
    <rect x="24" y="15" width="1" height="1"/>
    <rect x="19" y="18" width="2" height="1"/>
    <rect x="24" y="18" width="1" height="1"/>
    <rect x="23" y="19" width="1" height="1"/>
    <rect x="18" y="20" width="1" height="1"/>
    <rect x="20" y="20" width="1" height="1"/>
    <rect x="22" y="20" width="3" height="1"/>
    <rect x="17" y="21" width="2" height="1"/>
    <rect x="22" y="21" width="1" height="1"/>
    <rect x="14" y="22" width="1" height="1"/>
    <rect x="16" y="22" width="2" height="1"/>
    <rect x="20" y="22" width="1" height="1"/>
    <rect x="22" y="22" width="1" height="1"/>
    <rect x="15" y="23" width="2" height="1"/>
    <rect x="18" y="23" width="1" height="1"/>
    <rect x="20" y="23" width="1" height="1"/>
    <rect x="14" y="24" width="5" height="1"/>
    <rect x="22" y="24" width="1" height="1"/>
    <rect x="13" y="25" width="1" height="1"/>
    <rect x="15" y="25" width="2" height="1"/>
    <rect x="21" y="25" width="1" height="1"/>
    <rect x="24" y="25" width="1" height="1"/>
    <rect x="14" y="26" width="3" height="1"/>
    <rect x="19" y="26" width="2" height="1"/>
    <rect x="23" y="26" width="1" height="1"/>
    <rect x="16" y="27" width="1" height="1"/>
    <rect x="21" y="27" width="2" height="1"/>
    <rect x="20" y="28" width="2" height="1"/>
    <rect x="17" y="30" width="2" height="1"/>
  </g>
  <g fill="#f8e8d0">
    <rect x="25" y="15" width="1" height="1"/>
    <rect x="25" y="16" width="1" height="1"/>
    <rect x="25" y="19" width="1" height="1"/>
    <rect x="24" y="21" width="2" height="1"/>
    <rect x="24" y="22" width="1" height="1"/>
    <rect x="21" y="23" width="2" height="1"/>
    <rect x="24" y="23" width="1" height="1"/>
    <rect x="13" y="24" width="1" height="1"/>
    <rect x="23" y="24" width="1" height="1"/>
    <rect x="25" y="24" width="1" height="1"/>
    <rect x="12" y="25" width="1" height="1"/>
    <rect x="20" y="25" width="1" height="1"/>
    <rect x="23" y="25" width="1" height="1"/>
    <rect x="12" y="26" width="2" height="1"/>
    <rect x="18" y="26" width="1" height="1"/>
    <rect x="21" y="26" width="1" height="1"/>
    <rect x="24" y="26" width="1" height="1"/>
    <rect x="17" y="27" width="4" height="1"/>
    <rect x="23" y="27" width="1" height="1"/>
    <rect x="13" y="28" width="4" height="1"/>
    <rect x="18" y="28" width="1" height="1"/>
    <rect x="22" y="28" width="1" height="1"/>
    <rect x="24" y="28" width="2" height="1"/>
    <rect x="14" y="29" width="2" height="1"/>
    <rect x="18" y="29" width="1" height="1"/>
    <rect x="21" y="29" width="1" height="1"/>
    <rect x="20" y="30" width="2" height="1"/>
    <rect x="24" y="30" width="1" height="1"/>
    <rect x="16" y="31" width="2" height="1"/>
    <rect x="23" y="32" width="1" height="1"/>
  </g>
  <g fill="#e8d0b0">
    <rect x="26" y="15" width="1" height="1"/>
    <rect x="27" y="16" width="2" height="1"/>
    <rect x="31" y="18" width="1" height="1"/>
    <rect x="28" y="19" width="1" height="1"/>
    <rect x="33" y="19" width="1" height="1"/>
    <rect x="28" y="20" width="1" height="1"/>
    <rect x="28" y="21" width="1" height="1"/>
    <rect x="12" y="22" width="1" height="1"/>
    <rect x="28" y="23" width="1" height="1"/>
    <rect x="35" y="23" width="1" height="1"/>
    <rect x="27" y="24" width="2" height="1"/>
    <rect x="31" y="24" width="1" height="1"/>
    <rect x="29" y="25" width="1" height="1"/>
    <rect x="11" y="27" width="1" height="1"/>
    <rect x="30" y="28" width="1" height="1"/>
    <rect x="28" y="29" width="1" height="1"/>
    <rect x="27" y="30" width="3" height="1"/>
    <rect x="27" y="31" width="1" height="1"/>
    <rect x="30" y="31" width="1" height="1"/>
    <rect x="33" y="31" width="1" height="1"/>
    <rect x="25" y="32" width="1" height="1"/>
    <rect x="29" y="32" width="1" height="1"/>
    <rect x="31" y="32" width="1" height="1"/>
    <rect x="17" y="33" width="1" height="1"/>
    <rect x="27" y="33" width="1" height="1"/>
    <rect x="31" y="33" width="1" height="1"/>
    <rect x="23" y="34" width="1" height="1"/>
    <rect x="25" y="34" width="1" height="1"/>
    <rect x="27" y="34" width="1" height="1"/>
  </g>
  <g fill="#d8b890">
    <rect x="27" y="15" width="1" height="1"/>
    <rect x="37" y="24" width="1" height="1"/>
    <rect x="10" y="25" width="1" height="1"/>
    <rect x="36" y="29" width="1" height="1"/>
    <rect x="32" y="33" width="1" height="1"/>
    <rect x="18" y="34" width="1" height="1"/>
  </g>
  <g fill="#b87858">
    <rect x="40" y="15" width="1" height="1"/>
    <rect x="39" y="16" width="1" height="1"/>
    <rect x="6" y="18" width="1" height="1"/>
    <rect x="7" y="20" width="1" height="1"/>
    <rect x="41" y="21" width="1" height="1"/>
    <rect x="7" y="22" width="1" height="1"/>
    <rect x="41" y="22" width="1" height="1"/>
    <rect x="7" y="23" width="1" height="1"/>
    <rect x="42" y="26" width="1" height="1"/>
    <rect x="41" y="27" width="2" height="1"/>
    <rect x="6" y="30" width="1" height="1"/>
    <rect x="42" y="30" width="1" height="1"/>
    <rect x="6" y="32" width="1" height="1"/>
    <rect x="43" y="32" width="1" height="1"/>
    <rect x="42" y="35" width="1" height="1"/>
  </g>
  <g fill="#c89068">
    <rect x="41" y="15" width="1" height="1"/>
    <rect x="6" y="16" width="1" height="1"/>
    <rect x="39" y="18" width="2" height="1"/>
    <rect x="42" y="23" width="1" height="1"/>
    <rect x="6" y="26" width="1" height="1"/>
    <rect x="40" y="27" width="1" height="1"/>
    <rect x="7" y="28" width="1" height="1"/>
    <rect x="42" y="31" width="1" height="1"/>
    <rect x="5" y="33" width="1" height="1"/>
    <rect x="5" y="34" width="1" height="1"/>
    <rect x="41" y="34" width="1" height="1"/>
    <rect x="43" y="36" width="1" height="1"/>
  </g>
  <g fill="#806038">
    <rect x="43" y="15" width="1" height="1"/>
  </g>
  <g fill="#e8d0a8">
    <rect x="21" y="16" width="1" height="1"/>
    <rect x="19" y="17" width="1" height="1"/>
    <rect x="26" y="17" width="1" height="1"/>
    <rect x="26" y="18" width="1" height="1"/>
    <rect x="30" y="19" width="1" height="1"/>
    <rect x="29" y="20" width="1" height="1"/>
    <rect x="32" y="21" width="1" height="1"/>
    <rect x="29" y="22" width="1" height="1"/>
    <rect x="26" y="23" width="1" height="1"/>
    <rect x="30" y="26" width="1" height="1"/>
    <rect x="27" y="27" width="1" height="1"/>
    <rect x="30" y="29" width="1" height="1"/>
    <rect x="33" y="29" width="1" height="1"/>
  </g>
  <g fill="#f8f0e0">
    <rect x="22" y="16" width="2" height="1"/>
    <rect x="21" y="17" width="2" height="1"/>
    <rect x="24" y="17" width="1" height="1"/>
    <rect x="21" y="18" width="1" height="1"/>
    <rect x="23" y="18" width="1" height="1"/>
    <rect x="18" y="19" width="5" height="1"/>
    <rect x="17" y="20" width="1" height="1"/>
    <rect x="19" y="20" width="1" height="1"/>
    <rect x="21" y="20" width="1" height="1"/>
    <rect x="16" y="21" width="1" height="1"/>
    <rect x="19" y="21" width="1" height="1"/>
    <rect x="21" y="21" width="1" height="1"/>
    <rect x="15" y="22" width="1" height="1"/>
    <rect x="18" y="22" width="2" height="1"/>
    <rect x="21" y="22" width="1" height="1"/>
    <rect x="17" y="23" width="1" height="1"/>
    <rect x="19" y="23" width="1" height="1"/>
    <rect x="19" y="24" width="2" height="1"/>
    <rect x="17" y="25" width="2" height="1"/>
    <rect x="17" y="26" width="1" height="1"/>
    <rect x="19" y="29" width="1" height="1"/>
  </g>
  <g fill="#fff0e0">
    <rect x="24" y="16" width="1" height="1"/>
    <rect x="23" y="17" width="1" height="1"/>
    <rect x="22" y="18" width="1" height="1"/>
    <rect x="20" y="21" width="1" height="1"/>
  </g>
  <g fill="#e0c8a8">
    <rect x="26" y="16" width="1" height="1"/>
    <rect x="27" y="17" width="2" height="1"/>
    <rect x="17" y="18" width="1" height="1"/>
    <rect x="27" y="18" width="1" height="1"/>
    <rect x="27" y="19" width="1" height="1"/>
    <rect x="31" y="19" width="2" height="1"/>
    <rect x="30" y="20" width="1" height="1"/>
    <rect x="32" y="20" width="3" height="1"/>
    <rect x="34" y="21" width="2" height="1"/>
    <rect x="27" y="22" width="2" height="1"/>
    <rect x="33" y="22" width="1" height="1"/>
    <rect x="29" y="23" width="1" height="1"/>
    <rect x="32" y="24" width="1" height="1"/>
    <rect x="36" y="24" width="1" height="1"/>
    <rect x="35" y="26" width="1" height="1"/>
    <rect x="32" y="27" width="3" height="1"/>
    <rect x="12" y="29" width="1" height="1"/>
    <rect x="34" y="29" width="2" height="1"/>
    <rect x="31" y="30" width="3" height="1"/>
    <rect x="32" y="31" width="1" height="1"/>
    <rect x="20" y="34" width="3" height="1"/>
    <rect x="26" y="34" width="1" height="1"/>
  </g>
  <g fill="#b88058">
    <rect x="40" y="16" width="1" height="1"/>
    <rect x="5" y="31" width="1" height="1"/>
    <rect x="41" y="33" width="1" height="1"/>
  </g>
  <g fill="#c08860">
    <rect x="41" y="16" width="1" height="1"/>
    <rect x="40" y="17" width="1" height="1"/>
    <rect x="42" y="22" width="1" height="1"/>
    <rect x="41" y="25" width="1" height="1"/>
    <rect x="6" y="28" width="1" height="1"/>
    <rect x="5" y="32" width="1" height="1"/>
    <rect x="42" y="32" width="1" height="1"/>
    <rect x="42" y="34" width="1" height="1"/>
  </g>
  <g fill="#f0e8d0">
    <rect x="20" y="17" width="1" height="1"/>
  </g>
  <g fill="#f0e0c0">
    <rect x="25" y="17" width="1" height="1"/>
    <rect x="18" y="18" width="1" height="1"/>
    <rect x="26" y="19" width="1" height="1"/>
    <rect x="24" y="24" width="1" height="1"/>
    <rect x="26" y="25" width="2" height="1"/>
    <rect x="11" y="26" width="1" height="1"/>
    <rect x="24" y="27" width="1" height="1"/>
    <rect x="23" y="28" width="1" height="1"/>
    <rect x="23" y="29" width="1" height="1"/>
    <rect x="15" y="30" width="1" height="1"/>
    <rect x="22" y="30" width="1" height="1"/>
    <rect x="23" y="31" width="1" height="1"/>
    <rect x="28" y="31" width="1" height="1"/>
    <rect x="17" y="32" width="2" height="1"/>
    <rect x="21" y="32" width="1" height="1"/>
    <rect x="26" y="32" width="1" height="1"/>
    <rect x="18" y="33" width="1" height="1"/>
  </g>
  <g fill="#e8d8b8">
    <rect x="29" y="17" width="1" height="1"/>
    <rect x="16" y="19" width="1" height="1"/>
    <rect x="14" y="20" width="1" height="1"/>
    <rect x="26" y="20" width="2" height="1"/>
    <rect x="26" y="21" width="1" height="1"/>
    <rect x="30" y="22" width="1" height="1"/>
    <rect x="25" y="23" width="1" height="1"/>
    <rect x="29" y="24" width="1" height="1"/>
    <rect x="11" y="25" width="1" height="1"/>
    <rect x="28" y="25" width="1" height="1"/>
    <rect x="27" y="26" width="1" height="1"/>
    <rect x="28" y="27" width="2" height="1"/>
    <rect x="29" y="29" width="1" height="1"/>
    <rect x="12" y="30" width="2" height="1"/>
    <rect x="30" y="30" width="1" height="1"/>
    <rect x="14" y="31" width="1" height="1"/>
    <rect x="26" y="31" width="1" height="1"/>
    <rect x="15" y="32" width="1" height="1"/>
    <rect x="30" y="32" width="1" height="1"/>
    <rect x="26" y="33" width="1" height="1"/>
    <rect x="28" y="33" width="1" height="1"/>
  </g>
  <g fill="#e0c0a0">
    <rect x="30" y="17" width="1" height="1"/>
    <rect x="32" y="18" width="1" height="1"/>
    <rect x="32" y="22" width="1" height="1"/>
    <rect x="33" y="24" width="1" height="1"/>
    <rect x="35" y="24" width="1" height="1"/>
    <rect x="32" y="25" width="1" height="1"/>
    <rect x="32" y="26" width="1" height="1"/>
    <rect x="32" y="32" width="1" height="1"/>
    <rect x="24" y="34" width="1" height="1"/>
  </g>
  <g fill="#d8b888">
    <rect x="31" y="17" width="1" height="1"/>
    <rect x="16" y="18" width="1" height="1"/>
    <rect x="10" y="24" width="1" height="1"/>
    <rect x="12" y="31" width="1" height="1"/>
    <rect x="13" y="32" width="1" height="1"/>
    <rect x="17" y="34" width="1" height="1"/>
  </g>
  <g fill="#705028">
    <rect x="3" y="18" width="1" height="1"/>
    <rect x="19" y="38" width="1" height="1"/>
    <rect x="40" y="38" width="1" height="1"/>
  </g>
  <g fill="#c88860">
    <rect x="8" y="18" width="1" height="1"/>
    <rect x="40" y="24" width="1" height="1"/>
    <rect x="5" y="26" width="1" height="1"/>
    <rect x="6" y="33" width="1" height="1"/>
    <rect x="5" y="36" width="1" height="1"/>
  </g>
  <g fill="#f0e0c8">
    <rect x="25" y="18" width="1" height="1"/>
    <rect x="15" y="20" width="1" height="1"/>
    <rect x="14" y="21" width="1" height="1"/>
    <rect x="13" y="22" width="1" height="1"/>
    <rect x="12" y="23" width="1" height="1"/>
    <rect x="12" y="24" width="1" height="1"/>
    <rect x="26" y="26" width="1" height="1"/>
    <rect x="12" y="27" width="1" height="1"/>
    <rect x="12" y="28" width="1" height="1"/>
    <rect x="19" y="28" width="1" height="1"/>
    <rect x="27" y="28" width="1" height="1"/>
    <rect x="13" y="29" width="1" height="1"/>
    <rect x="16" y="29" width="1" height="1"/>
    <rect x="25" y="29" width="1" height="1"/>
    <rect x="23" y="30" width="1" height="1"/>
    <rect x="15" y="31" width="1" height="1"/>
    <rect x="19" y="31" width="1" height="1"/>
    <rect x="21" y="31" width="2" height="1"/>
    <rect x="24" y="31" width="2" height="1"/>
    <rect x="19" y="32" width="2" height="1"/>
    <rect x="22" y="32" width="1" height="1"/>
    <rect x="19" y="33" width="1" height="1"/>
    <rect x="21" y="33" width="3" height="1"/>
    <rect x="25" y="33" width="1" height="1"/>
  </g>
  <g fill="#e0c8a0">
    <rect x="28" y="18" width="1" height="1"/>
    <rect x="29" y="19" width="1" height="1"/>
    <rect x="31" y="20" width="1" height="1"/>
    <rect x="13" y="21" width="1" height="1"/>
    <rect x="30" y="21" width="1" height="1"/>
    <rect x="33" y="21" width="1" height="1"/>
    <rect x="31" y="22" width="1" height="1"/>
    <rect x="34" y="22" width="1" height="1"/>
    <rect x="30" y="23" width="2" height="1"/>
    <rect x="33" y="23" width="2" height="1"/>
    <rect x="11" y="24" width="1" height="1"/>
    <rect x="30" y="25" width="1" height="1"/>
    <rect x="33" y="25" width="2" height="1"/>
    <rect x="28" y="26" width="2" height="1"/>
    <rect x="31" y="26" width="1" height="1"/>
    <rect x="34" y="26" width="1" height="1"/>
    <rect x="36" y="26" width="1" height="1"/>
    <rect x="31" y="27" width="1" height="1"/>
    <rect x="35" y="27" width="1" height="1"/>
    <rect x="11" y="28" width="1" height="1"/>
    <rect x="29" y="28" width="1" height="1"/>
    <rect x="31" y="28" width="2" height="1"/>
    <rect x="34" y="28" width="1" height="1"/>
    <rect x="31" y="29" width="1" height="1"/>
    <rect x="34" y="30" width="1" height="1"/>
    <rect x="31" y="31" width="1" height="1"/>
    <rect x="14" y="32" width="1" height="1"/>
  </g>
  <g fill="#e8d8b0">
    <rect x="29" y="18" width="1" height="1"/>
    <rect x="27" y="29" width="1" height="1"/>
  </g>
  <g fill="#e0d0a8">
    <rect x="30" y="18" width="1" height="1"/>
    <rect x="35" y="28" width="1" height="1"/>
    <rect x="34" y="31" width="1" height="1"/>
  </g>
  <g fill="#b08850">
    <rect x="43" y="18" width="1" height="1"/>
  </g>
  <g fill="#684828">
    <rect x="44" y="18" width="1" height="1"/>
    <rect x="44" y="19" width="1" height="1"/>
    <rect x="3" y="20" width="1" height="1"/>
    <rect x="46" y="32" width="1" height="1"/>
    <rect x="46" y="33" width="1" height="1"/>
    <rect x="3" y="38" width="1" height="1"/>
  </g>
  <g fill="#a86850">
    <rect x="6" y="19" width="1" height="1"/>
    <rect x="41" y="19" width="1" height="1"/>
    <rect x="42" y="29" width="1" height="1"/>
    <rect x="43" y="35" width="1" height="1"/>
  </g>
  <g fill="#c89868">
    <rect x="8" y="19" width="1" height="1"/>
    <rect x="5" y="24" width="1" height="1"/>
    <rect x="6" y="34" width="1" height="1"/>
    <rect x="41" y="35" width="1" height="1"/>
  </g>
  <g fill="#f8e8d8">
    <rect x="17" y="19" width="1" height="1"/>
    <rect x="24" y="19" width="1" height="1"/>
    <rect x="16" y="20" width="1" height="1"/>
    <rect x="15" y="21" width="1" height="1"/>
    <rect x="23" y="21" width="1" height="1"/>
    <rect x="13" y="23" width="2" height="1"/>
    <rect x="23" y="23" width="1" height="1"/>
    <rect x="21" y="24" width="1" height="1"/>
    <rect x="26" y="24" width="1" height="1"/>
    <rect x="14" y="25" width="1" height="1"/>
    <rect x="19" y="25" width="1" height="1"/>
    <rect x="22" y="25" width="1" height="1"/>
    <rect x="25" y="25" width="1" height="1"/>
    <rect x="13" y="27" width="3" height="1"/>
    <rect x="20" y="29" width="1" height="1"/>
    <rect x="16" y="30" width="1" height="1"/>
    <rect x="19" y="30" width="1" height="1"/>
  </g>
  <g fill="#c8a870">
    <rect x="34" y="19" width="1" height="1"/>
  </g>
  <g fill="#c09058">
    <rect x="43" y="19" width="1" height="1"/>
    <rect x="4" y="22" width="1" height="1"/>
    <rect x="9" y="25" width="1" height="1"/>
    <rect x="8" y="26" width="1" height="1"/>
    <rect x="3" y="28" width="1" height="1"/>
    <rect x="45" y="32" width="1" height="1"/>
    <rect x="32" y="35" width="1" height="1"/>
    <rect x="31" y="36" width="1" height="1"/>
    <rect x="7" y="37" width="1" height="1"/>
  </g>
  <g fill="#f0d8c0">
    <rect x="25" y="20" width="1" height="1"/>
    <rect x="27" y="21" width="1" height="1"/>
    <rect x="25" y="22" width="1" height="1"/>
    <rect x="27" y="23" width="1" height="1"/>
    <rect x="25" y="27" width="2" height="1"/>
    <rect x="26" y="28" width="1" height="1"/>
    <rect x="32" y="29" width="1" height="1"/>
    <rect x="26" y="30" width="1" height="1"/>
    <rect x="28" y="32" width="1" height="1"/>
    <rect x="20" y="33" width="1" height="1"/>
  </g>
  <g fill="#d0b080">
    <rect x="35" y="20" width="1" height="1"/>
  </g>
  <g fill="#b07050">
    <rect x="41" y="20" width="1" height="1"/>
    <rect x="6" y="21" width="1" height="1"/>
    <rect x="40" y="23" width="1" height="1"/>
    <rect x="40" y="26" width="1" height="1"/>
    <rect x="43" y="33" width="1" height="1"/>
    <rect x="43" y="34" width="1" height="1"/>
    <rect x="43" y="37" width="1" height="1"/>
  </g>
  <g fill="#785030">
    <rect x="44" y="20" width="1" height="1"/>
    <rect x="35" y="38" width="1" height="1"/>
  </g>
  <g fill="#b06850">
    <rect x="7" y="21" width="1" height="1"/>
    <rect x="4" y="34" width="1" height="1"/>
  </g>
  <g fill="#e0c098">
    <rect x="29" y="21" width="1" height="1"/>
    <rect x="31" y="21" width="1" height="1"/>
    <rect x="35" y="22" width="1" height="1"/>
    <rect x="11" y="23" width="1" height="1"/>
    <rect x="32" y="23" width="1" height="1"/>
    <rect x="36" y="23" width="1" height="1"/>
    <rect x="30" y="24" width="1" height="1"/>
    <rect x="31" y="25" width="1" height="1"/>
    <rect x="35" y="25" width="1" height="1"/>
    <rect x="10" y="26" width="1" height="1"/>
    <rect x="10" y="27" width="1" height="1"/>
    <rect x="30" y="27" width="1" height="1"/>
    <rect x="13" y="31" width="1" height="1"/>
  </g>
  <g fill="#d0b088">
    <rect x="36" y="21" width="1" height="1"/>
    <rect x="37" y="27" width="1" height="1"/>
    <rect x="36" y="30" width="1" height="1"/>
    <rect x="19" y="34" width="1" height="1"/>
    <rect x="29" y="34" width="1" height="1"/>
  </g>
  <g fill="#b07058">
    <rect x="6" y="22" width="1" height="1"/>
  </g>
  <g fill="#f8e8c8">
    <rect x="23" y="22" width="1" height="1"/>
    <rect x="17" y="29" width="1" height="1"/>
    <rect x="22" y="29" width="1" height="1"/>
    <rect x="24" y="29" width="1" height="1"/>
    <rect x="20" y="31" width="1" height="1"/>
  </g>
  <g fill="#d8c098">
    <rect x="36" y="22" width="1" height="1"/>
    <rect x="34" y="24" width="1" height="1"/>
    <rect x="36" y="25" width="1" height="1"/>
    <rect x="33" y="26" width="1" height="1"/>
    <rect x="37" y="26" width="1" height="1"/>
    <rect x="36" y="27" width="1" height="1"/>
    <rect x="33" y="28" width="1" height="1"/>
    <rect x="36" y="28" width="2" height="1"/>
    <rect x="35" y="30" width="1" height="1"/>
    <rect x="30" y="33" width="1" height="1"/>
    <rect x="28" y="34" width="1" height="1"/>
  </g>
  <g fill="#d0a878">
    <rect x="37" y="22" width="1" height="1"/>
    <rect x="34" y="33" width="1" height="1"/>
    <rect x="25" y="35" width="1" height="1"/>
  </g>
  <g fill="#b06048">
    <rect x="40" y="22" width="1" height="1"/>
  </g>
  <g fill="#c89870">
    <rect x="5" y="23" width="1" height="1"/>
  </g>
  <g fill="#d0b890">
    <rect x="37" y="23" width="1" height="1"/>
    <rect x="35" y="31" width="1" height="1"/>
  </g>
  <g fill="#b88060">
    <rect x="41" y="23" width="1" height="1"/>
    <rect x="6" y="27" width="1" height="1"/>
    <rect x="42" y="33" width="1" height="1"/>
  </g>
  <g fill="#e8c088">
    <rect x="8" y="24" width="1" height="1"/>
    <rect x="26" y="36" width="2" height="1"/>
  </g>
  <g fill="#c8a070">
    <rect x="38" y="24" width="1" height="1"/>
    <rect x="36" y="31" width="1" height="1"/>
    <rect x="36" y="32" width="1" height="1"/>
  </g>
  <g fill="#c89070">
    <rect x="41" y="24" width="1" height="1"/>
  </g>
  <g fill="#b88858">
    <rect x="44" y="24" width="1" height="1"/>
    <rect x="32" y="36" width="1" height="1"/>
    <rect x="6" y="37" width="1" height="1"/>
    <rect x="17" y="37" width="1" height="1"/>
  </g>
  <g fill="#d09068">
    <rect x="6" y="25" width="1" height="1"/>
  </g>
  <g fill="#d0a880">
    <rect x="37" y="25" width="1" height="1"/>
  </g>
  <g fill="#c09060">
    <rect x="44" y="25" width="1" height="1"/>
    <rect x="43" y="29" width="1" height="1"/>
  </g>
  <g fill="#785830">
    <rect x="45" y="25" width="1" height="1"/>
    <rect x="45" y="28" width="1" height="1"/>
    <rect x="27" y="38" width="1" height="1"/>
  </g>
  <g fill="#b87850">
    <rect x="7" y="26" width="1" height="1"/>
  </g>
  <g fill="#f0e8c8">
    <rect x="22" y="26" width="1" height="1"/>
    <rect x="17" y="28" width="1" height="1"/>
  </g>
  <g fill="#a86048">
    <rect x="5" y="27" width="1" height="1"/>
    <rect x="41" y="30" width="1" height="1"/>
  </g>
  <g fill="#b07850">
    <rect x="7" y="27" width="1" height="1"/>
  </g>
  <g fill="#907048">
    <rect x="2" y="28" width="1" height="1"/>
  </g>
  <g fill="#a86848">
    <rect x="5" y="28" width="1" height="1"/>
  </g>
  <g fill="#e0b890">
    <rect x="10" y="28" width="1" height="1"/>
    <rect x="14" y="33" width="1" height="1"/>
  </g>
  <g fill="#c88060">
    <rect x="41" y="28" width="1" height="1"/>
    <rect x="4" y="36" width="1" height="1"/>
  </g>
  <g fill="#b88850">
    <rect x="44" y="28" width="1" height="1"/>
  </g>
  <g fill="#d8b880">
    <rect x="10" y="29" width="1" height="1"/>
    <rect x="10" y="30" width="1" height="1"/>
    <rect x="28" y="35" width="1" height="1"/>
    <rect x="22" y="37" width="1" height="1"/>
  </g>
  <g fill="#e8c8a0">
    <rect x="11" y="30" width="1" height="1"/>
  </g>
  <g fill="#d0b078">
    <rect x="37" y="30" width="1" height="1"/>
    <rect x="33" y="33" width="1" height="1"/>
  </g>
  <g fill="#a05848">
    <rect x="6" y="31" width="1" height="1"/>
  </g>
  <g fill="#f8e0c8">
    <rect x="18" y="31" width="1" height="1"/>
  </g>
  <g fill="#d8a070">
    <rect x="43" y="31" width="1" height="1"/>
  </g>
  <g fill="#c09868">
    <rect x="2" y="32" width="1" height="1"/>
    <rect x="35" y="32" width="1" height="1"/>
  </g>
  <g fill="#d8b898">
    <rect x="33" y="32" width="1" height="1"/>
  </g>
  <g fill="#c8a878">
    <rect x="34" y="32" width="1" height="1"/>
  </g>
  <g fill="#d8b088">
    <rect x="16" y="33" width="1" height="1"/>
    <rect x="30" y="34" width="1" height="1"/>
    <rect x="23" y="35" width="1" height="1"/>
  </g>
  <g fill="#886840">
    <rect x="46" y="35" width="1" height="1"/>
  </g>
  <g fill="#c8a060">
    <rect x="21" y="36" width="1" height="1"/>
  </g>
  <g fill="#a07840">
    <rect x="2" y="37" width="1" height="1"/>
  </g>
  <g fill="#a87048">
    <rect x="4" y="37" width="1" height="1"/>
  </g>
  <g fill="#a05840">
    <rect x="5" y="37" width="1" height="1"/>
    <rect x="42" y="37" width="1" height="1"/>
  </g>
  <g fill="#a06848">
    <rect x="44" y="37" width="1" height="1"/>
  </g>
  <g fill="#705030">
    <rect x="1" y="38" width="2" height="1"/>
    <rect x="17" y="38" width="2" height="1"/>
    <rect x="20" y="38" width="1" height="1"/>
    <rect x="28" y="38" width="3" height="1"/>
    <rect x="37" y="38" width="3" height="1"/>
    <rect x="45" y="38" width="2" height="1"/>
  </g>
  <g fill="#603828">
    <rect x="4" y="38" width="2" height="1"/>
  </g>
  <g fill="#907040">
    <rect x="7" y="38" width="1" height="1"/>
  </g>
  <g fill="#583820">
    <rect x="42" y="38" width="1" height="1"/>
  </g>
  <g fill="#805030">
    <rect x="44" y="38" width="1" height="1"/>
  </g>
</svg>
